<svg class="hexagons" viewBox="0 0 390.67 299.33">
  <style type="text/css">
    .hex {
      fill: none;
      stroke: #000;
    }

    .hex-logo {
      stroke: none;
      fill: #000;
    }

    .active .hex {
      stroke: none;
      fill: #000;
    }

    .active .hex-logo {
      fill: #fff;
    }
  </style>

  <!-- PSM -->
  <g class="STATS5077">
    <path class="hex" d="M3.76,128.98l22.75-39.41h45.5l22.75,39.41l-22.75,39.41h-45.5L3.76,128.98z" />
    <path class="hex-logo" d="M23.1,142.78v-1.51h0.59c8.03,0,12.84-10.72,16.7-19.33c3.01-6.72,5.4-12.03,8.75-12.03
    c2.98,0,5.17,4.98,7.94,11.28c3.94,8.95,8.85,20.09,17.51,20.09h0.59v1.51H23.1z M57.67,125.39L57.6,141.6h12.73
    C64.6,139.21,60.78,132.19,57.67,125.39z" />
  </g>

  <!-- R -->
  <g class="STATS5078">
    <path class="hex" d="M76.48,87.22l22.75-39.41h45.5l22.75,39.41l-22.75,39.41h-45.5L76.48,87.22z" />
    <path class="hex-logo" d="M136.56,96.71l5.28,8.89l-8.76,0l-3.15-5.9c-1.71,0.51-3.53,0.88-5.43,1.09v4.81l-7.75,0v-4.84
    c-10.64-1.27-18.73-7.49-18.73-14.97c0-8.4,10.18-15.21,22.73-15.21c12.55,0,22.73,6.81,22.73,15.21
    C143.48,90.07,140.82,93.94,136.56,96.71z M131.44,87.7c0-2.25-2.18-2.13-2.18-2.13l-4.69,0l0,4.35h4.7
    C129.26,89.91,131.44,89.9,131.44,87.7z M128.46,97.09c-0.27-0.4-0.59-0.83-0.83-1.03c-0.43-0.35-0.62-0.47-1.04-0.47
    c-0.29,0-2.08,0-2.08,0v1.73C125.88,97.31,127.2,97.23,128.46,97.09z M124.23,76.52c-9.54,0-17.28,4.66-17.28,10.4
    c0,4.13,4,7.7,9.8,9.38V80.02h15.57c0,0,7.09,0.13,7.09,6.87c0,6.74-6.78,7.24-6.78,7.24s1.38,0.41,2.18,0.82
    c0.13,0.07,0.31,0.17,0.5,0.29c3.43-1.68,5.51-4.4,5.51-8.33C140.81,79.7,133.77,76.52,124.23,76.52z" />
  </g>

  <!-- LFD -->
  <g class="STATS5075">
    <path class="hex" d="M149.68,44.98l22.75-39.41h45.5l22.75,39.41l-22.75,39.41h-45.5L149.68,44.98z" />
    <path class="hex-logo" d="M199.59,54.99c-0.45-0.57-0.49-2.25-0.07-2.89c0.16-0.23,0.27-0.28,0.63-0.25c0.37,0.03,0.48,0.1,0.65,0.46
    c0.24,0.48,0.29,1.79,0.08,2.38C200.65,55.35,199.99,55.5,199.59,54.99z M198.67,25.3c-0.26,0.51-0.66,0.62-1.11,0.31
    c-0.52-0.36-0.64-2.12-0.2-2.96c0.31-0.6,1-0.59,1.31,0.02C198.91,23.13,198.91,24.84,198.67,25.3z M208.14,40.76
    c-0.44,1.37-1.51,3.46-1.73,3.4c-0.1-0.02-0.36-0.1-0.6-0.17c-0.34-0.09-0.52-0.08-0.86,0.09c-0.63,0.3-0.86,0.85-0.88,2.1
    c-0.02,1-0.02,1.02-0.45,1.39c-0.38,0.33-0.5,0.37-0.95,0.31l-0.52-0.07l-0.03-1.89l-0.04-1.89l-0.33,0c-0.18,0-0.53,0.03-0.78,0.07
    c-0.37,0.06-0.45,0.12-0.45,0.35c0,0.25,0.04,0.27,0.39,0.21c0.21-0.04,0.45-0.08,0.51-0.09c0.07-0.01,0.12,0.6,0.12,1.6v1.62
    l-0.45,0.04c-0.35,0.03-0.45,0.09-0.45,0.27c0,0.21,0.09,0.23,0.98,0.23h0.99l-0.41,0.3c-0.23,0.17-0.45,0.4-0.5,0.51
    c-0.04,0.11-0.09,0.99-0.09,1.94c-0.02,1.66-0.02,1.71-0.18,1.26c-0.25-0.69-0.67-1.02-1.34-1.02c-0.75,0-1.17,0.43-1.36,1.37
    c-0.35,1.68,0.36,3.17,1.44,3.04c0.23-0.03,0.53-0.09,0.66-0.15c0.47-0.19-0.59,0.79-1.2,1.12l-0.6,0.32l-5.16,0.02
    c-4.97,0.03-5.19,0.02-5.8-0.22c-0.69-0.27-1.7-1.14-1.7-1.46c0-0.11-0.05-0.2-0.11-0.2c-0.06,0-0.2-0.25-0.3-0.56
    c-0.15-0.44-0.19-1.08-0.19-2.93c0-1.3-0.03-2.45-0.07-2.54c-0.04-0.1-0.58-0.57-1.2-1.05l-1.13-0.88v-3.22l-0.73,0.07
    c-0.86,0.09-0.95,0.13-0.95,0.45c0,0.24,0.09,0.24,0.87,0.03c0.19-0.05,0.21,0.05,0.21,1l0,1.06l-0.48-0.54
    c-0.75-0.84-1.73-2.36-2.26-3.48c-0.68-1.44-0.69-1.51-0.31-1.7c0.49-0.24,0.76-0.68,0.88-1.45c0.21-1.3-0.22-2.63-0.91-2.8
    c-0.16-0.04-0.49-0.05-0.73-0.02l-0.44,0.05l0.07-1.39c0.04-0.77,0.11-1.48,0.15-1.6c0.07-0.17,0.23-0.21,0.91-0.21
    c0.64,0,0.83-0.04,0.83-0.17c0-0.11-0.16-0.19-0.45-0.21l-0.45-0.04l-0.04-1.08c-0.03-0.93,0-1.19,0.28-1.89
    c0.34-0.88,1.34-2.54,2.04-3.39l0.44-0.54h1.01c0.93,0,1-0.02,1-0.24c0-0.2-0.08-0.24-0.48-0.24c-0.42,0-0.48-0.03-0.48-0.28
    c0-0.16,0.17-0.43,0.39-0.64c0.48-0.45,1.36-1.12,1.46-1.12c0.04,0,0.07,0.31,0.07,0.69c0,0.9,0.28,1.46,0.89,1.76
    c0.43,0.21,0.52,0.21,0.96,0.06c0.7-0.24,1.03-0.92,1.03-2.12c0-0.52-0.07-1.06-0.18-1.32c-0.1-0.24-0.14-0.48-0.09-0.52
    c0.18-0.16,1.41-0.56,2.56-0.84c0.95-0.23,1.48-0.28,3.18-0.28c2.05-0.01,3.3,0.16,4.48,0.59l0.44,0.16l-0.55,0.01
    c-1.04,0.02-1.43,0.62-1.43,2.19c0,1.24,0.22,1.74,0.89,2.07c0.43,0.21,0.51,0.21,0.96,0.06c0.7-0.24,1.03-0.92,1.03-2.12
    c0-0.96-0.18-1.53-0.62-1.95l-0.28-0.27l0.3,0.09c0.51,0.15,2.32,1.02,2.55,1.22c0.18,0.16,0.22,0.39,0.22,1.38v1.18h-0.48
    c-0.4,0-0.48,0.04-0.48,0.24c0,0.22,0.08,0.24,1.2,0.24c1.12,0,1.2-0.02,1.2-0.24c0-0.2-0.08-0.24-0.48-0.24h-0.48v-1.02
    c0-0.56,0.03-1.02,0.07-1.02c0.16,0,1.11,0.73,1.59,1.22c2.24,2.27,2.61,2.75,3.5,4.51c1.09,2.17,1.58,4.29,1.58,6.8
    C208.83,37.91,208.63,39.22,208.14,40.76z M183.6,29.32c-1.38-0.71-2.46,0.82-2.03,2.89c0.2,0.95,0.62,1.38,1.34,1.38
    c0.29,0,0.64-0.09,0.79-0.19c0.49-0.35,0.68-0.87,0.68-1.97C184.39,30.25,184.15,29.61,183.6,29.32z M182.91,36.58
    c-0.71,0-1.15,0.43-1.35,1.34c-0.28,1.26,0.09,2.57,0.85,2.94c0.39,0.2,0.66,0.19,1.14-0.03c0.61-0.29,0.84-0.87,0.83-2.09
    C184.37,37.21,183.95,36.58,182.91,36.58z M199.33,48.1c0-0.2-0.08-0.24-0.48-0.24h-0.48v-3.84l-0.33,0c-0.18,0-0.53,0.03-0.78,0.07
    c-0.37,0.06-0.45,0.12-0.45,0.36c0,0.28,0.13,0.3,0.81,0.09c0.12-0.03,0.15,0.34,0.15,1.63v1.68h-0.48c-0.32,0-0.48,0.05-0.48,0.16
    c0,0.29,0.15,0.32,1.34,0.32C199.25,48.34,199.33,48.32,199.33,48.1z M189.85,40.42c-0.4,0-0.48,0.04-0.48,0.24
    c0,0.23,0.08,0.24,1.2,0.24c1.12,0,1.2-0.02,1.2-0.24c0-0.2-0.08-0.24-0.48-0.24h-0.48v-3.87l-0.6,0.08
    c-0.81,0.11-0.96,0.18-0.96,0.45c0,0.21,0.05,0.23,0.54,0.15l0.54-0.08v3.27H189.85z M191.32,47.84l-0.45-0.04l-0.03-1.89
    l-0.04-1.89l-0.32,0c-0.18,0-0.53,0.03-0.78,0.07c-0.37,0.06-0.45,0.12-0.45,0.35c0,0.25,0.04,0.27,0.39,0.21
    c0.21-0.04,0.44-0.08,0.51-0.09c0.07-0.01,0.12,0.6,0.12,1.6v1.62l-0.45,0.04c-0.36,0.03-0.45,0.09-0.45,0.27
    c0,0.21,0.09,0.23,1.2,0.23c1.11,0,1.2-0.01,1.2-0.23C191.77,47.92,191.67,47.87,191.32,47.84z M187.6,33.08l-0.45-0.04l-0.03-1.89
    l-0.04-1.89h-0.4c-0.81,0-1.15,0.13-1.15,0.43c0,0.17,0.06,0.26,0.15,0.23c0.08-0.02,0.3-0.08,0.48-0.12l0.33-0.07v3.37h-0.48
    c-0.35,0-0.48,0.05-0.48,0.18c0,0.15,0.22,0.18,1.26,0.18c1.02,0,1.26-0.04,1.26-0.17C188.05,33.18,187.89,33.11,187.6,33.08z
    M187.57,40.42h-0.48v-3.87l-0.6,0.08c-0.82,0.11-0.96,0.18-0.96,0.46c0,0.21,0.06,0.23,0.48,0.16l0.48-0.08v3.26h-0.48
    c-0.4,0-0.48,0.04-0.48,0.24c0,0.23,0.08,0.24,1.26,0.24c1.18,0,1.26-0.02,1.26-0.24C188.05,40.46,187.97,40.42,187.57,40.42z
    M187.57,47.86h-0.48v-3.84l-0.33,0c-0.18,0-0.53,0.03-0.78,0.07c-0.38,0.06-0.45,0.12-0.45,0.36c0,0.28,0.13,0.3,0.81,0.09
    c0.11-0.03,0.15,0.34,0.15,1.63v1.68h-0.48c-0.32,0-0.48,0.05-0.48,0.16c0,0.29,0.14,0.32,1.34,0.32c1.1,0,1.18-0.01,1.18-0.24
    C188.05,47.9,187.97,47.86,187.57,47.86z M187.92,51.71c-0.41,0.43-0.54,0.96-0.52,2.04c0.03,1.58,0.98,2.42,2.09,1.85
    c0.48-0.25,0.74-0.81,0.81-1.73c0.07-0.98-0.13-1.74-0.57-2.18c-0.28-0.28-0.45-0.34-0.9-0.34
    C188.36,51.34,188.21,51.4,187.92,51.71z M191.29,25.67h-0.48V21.8l-0.6,0.08c-0.81,0.11-0.96,0.18-0.96,0.44
    c0,0.19,0.07,0.21,0.54,0.15l0.54-0.07v3.27h-0.48c-0.4,0-0.48,0.04-0.48,0.24c0,0.22,0.08,0.24,1.2,0.24c1.12,0,1.2-0.02,1.2-0.24
    C191.77,25.71,191.69,25.67,191.29,25.67z M191.26,29.44c-0.32-0.27-0.46-0.31-0.92-0.26c-0.91,0.1-1.33,0.84-1.33,2.3
    c0,0.82,0.31,1.6,0.73,1.91c0.33,0.23,0.93,0.25,1.37,0.05c0.5-0.23,0.79-0.94,0.8-1.95C191.93,30.43,191.74,29.84,191.26,29.44z
    M191.79,51.64c-0.5,0.43-0.66,0.98-0.59,2.18c0.06,1.08,0.25,1.51,0.83,1.82c0.4,0.21,1.15,0.1,1.5-0.23
    c0.16-0.15,0.34-0.46,0.41-0.7c0.17-0.62,0.15-1.99-0.05-2.45C193.51,51.35,192.49,51.05,191.79,51.64z M193.33,48
    c0.27,0.27,0.45,0.34,0.86,0.34c0.29,0,0.64-0.08,0.79-0.19c0.49-0.34,0.67-0.87,0.68-1.97c0-0.77-0.05-1.13-0.23-1.48
    c-0.43-0.86-1.49-1.02-2.16-0.33C192.56,45.12,192.59,47.26,193.33,48z M193.69,40.87c0.39,0.2,0.66,0.19,1.14-0.03
    c0.61-0.29,0.84-0.87,0.83-2.09c-0.01-1.53-0.43-2.16-1.47-2.16c-0.71,0-1.14,0.43-1.34,1.34
    C192.57,39.18,192.94,40.49,193.69,40.87z M194.03,31.4l-0.04,1.64l-0.45,0.04c-0.29,0.02-0.45,0.1-0.45,0.21
    c0,0.14,0.24,0.17,1.26,0.17c1.04,0,1.26-0.03,1.26-0.18c0-0.13-0.13-0.18-0.48-0.18h-0.48v-3.84l-0.51,0.01
    c-0.77,0.02-1.11,0.14-1.11,0.41c0,0.25,0.01,0.25,0.63,0.13l0.39-0.08L194.03,31.4z M195.69,23.66c-0.12-1.27-0.57-1.83-1.46-1.83
    c-1,0-1.43,0.65-1.43,2.16c0,1.05,0.15,1.53,0.61,1.94c0.49,0.44,1.27,0.37,1.75-0.14C195.59,25.32,195.78,24.58,195.69,23.66z
    M195.74,51.47c-0.48,0.1-0.61,0.18-0.61,0.37c0,0.22,0.05,0.24,0.54,0.16l0.54-0.08v3.25h-0.48c-0.4,0-0.48,0.04-0.48,0.24
    c0,0.22,0.08,0.24,1.2,0.24c1.12,0,1.2-0.01,1.2-0.24c0-0.2-0.08-0.24-0.48-0.24h-0.48v-1.92
    C196.69,51.11,196.76,51.25,195.74,51.47z M198.88,33.08l-0.45-0.04l-0.04-1.89l-0.03-1.89h-0.4c-0.81,0-1.15,0.13-1.15,0.43
    c0,0.17,0.06,0.26,0.15,0.23c0.09-0.02,0.3-0.08,0.48-0.12l0.33-0.07v3.37h-0.48c-0.35,0-0.48,0.05-0.48,0.18
    c0,0.15,0.22,0.18,1.26,0.18c1.02,0,1.26-0.04,1.26-0.17C199.33,33.18,199.17,33.11,198.88,33.08z M197.97,36.58
    c-0.65,0-0.97,0.23-1.22,0.89c-0.29,0.77-0.21,2.44,0.13,2.91c0.47,0.63,1.09,0.79,1.75,0.45c0.51-0.26,0.82-1,0.82-1.97
    C199.45,37.33,198.97,36.58,197.97,36.58z M201.07,37.24l0.54-0.08v3.27h-0.48c-0.4,0-0.48,0.04-0.48,0.24
    c0,0.23,0.08,0.24,1.2,0.24c1.12,0,1.2-0.02,1.2-0.24c0-0.2-0.08-0.24-0.48-0.24h-0.48v-3.87l-0.6,0.08
    c-0.81,0.11-0.96,0.18-0.96,0.45C200.53,37.29,200.59,37.31,201.07,37.24z M202.54,29.44c-0.32-0.27-0.46-0.31-0.92-0.26
    c-0.91,0.1-1.33,0.84-1.32,2.3c0,0.82,0.3,1.6,0.73,1.91c0.35,0.24,0.97,0.25,1.42,0.02c0.46-0.24,0.75-1,0.75-1.99
    C203.21,30.41,203.02,29.84,202.54,29.44z M206.73,29.95c-0.52-1.04-1.91-1.07-2.4-0.04c-0.5,1.05-0.31,2.9,0.36,3.42
    c0.38,0.3,1.19,0.33,1.57,0.06c0.49-0.35,0.68-0.87,0.68-1.97C206.95,30.66,206.9,30.29,206.73,29.95z M205.48,36.58
    c-0.71,0-1.14,0.43-1.35,1.34c-0.28,1.26,0.09,2.57,0.85,2.94c0.4,0.2,0.66,0.19,1.14-0.03c0.61-0.29,0.84-0.87,0.84-2.09
    C206.94,37.21,206.51,36.58,205.48,36.58z M205.06,40.33c-0.45-0.5-0.59-1.79-0.29-2.67c0.18-0.52,0.67-0.8,1.05-0.6
    c0.5,0.26,0.74,1.5,0.52,2.61C206.19,40.43,205.48,40.79,205.06,40.33z M205.55,33.08c-0.37,0.03-0.48-0.01-0.66-0.3
    c-0.28-0.42-0.31-2.23-0.05-2.72c0.33-0.62,1.12-0.57,1.4,0.1c0.24,0.58,0.22,1.94-0.04,2.46
    C206.03,32.98,205.92,33.05,205.55,33.08z M202.26,32.92c-0.26,0.27-0.81,0.23-1.08-0.07c-0.33-0.37-0.39-2.15-0.08-2.75
    c0.18-0.36,0.28-0.42,0.62-0.42c0.55,0,0.83,0.4,0.93,1.32C202.73,31.79,202.56,32.62,202.26,32.92z M197.43,40.24
    c-0.6-0.77-0.39-2.92,0.31-3.19c0.37-0.14,0.82,0.12,0.99,0.57c0.18,0.47,0.14,2.05-0.06,2.44
    C198.38,40.63,197.8,40.71,197.43,40.24z M194.77,25.49c-0.33,0.35-0.72,0.38-0.99,0.09c-0.31-0.34-0.45-0.84-0.45-1.6
    c0-1.3,0.58-2.06,1.25-1.63c0.42,0.28,0.59,0.92,0.53,1.96C195.06,25.02,194.99,25.25,194.77,25.49z M194.54,37.07
    c0.5,0.26,0.74,1.5,0.52,2.61c-0.15,0.75-0.86,1.12-1.28,0.66c-0.45-0.5-0.59-1.79-0.29-2.67
    C193.67,37.15,194.16,36.87,194.54,37.07z M193.94,44.46c0.27-0.16,0.74-0.01,0.94,0.3c0.1,0.16,0.19,0.69,0.22,1.23
    c0.04,0.76,0,1.05-0.17,1.37c-0.26,0.49-0.61,0.64-1.01,0.45C193.13,47.43,193.15,44.95,193.94,44.46z M193.13,55.08
    c-0.25,0.28-0.79,0.28-1.05,0c-0.27-0.3-0.44-1.43-0.33-2.17c0.11-0.71,0.4-1.08,0.85-1.08c0.18,0,0.42,0.11,0.54,0.24
    C193.62,52.58,193.61,54.55,193.13,55.08z M190.98,32.92c-0.26,0.27-0.81,0.23-1.08-0.07c-0.34-0.37-0.39-2.15-0.09-2.75
    c0.18-0.36,0.28-0.42,0.63-0.42c0.55,0,0.83,0.4,0.93,1.32C191.44,31.79,191.27,32.62,190.98,32.92z M189.6,54.68
    c-0.23,0.66-0.89,0.82-1.29,0.3c-0.45-0.57-0.49-2.25-0.07-2.89c0.16-0.23,0.28-0.28,0.64-0.25c0.37,0.03,0.48,0.1,0.65,0.46
    C189.76,52.78,189.8,54.09,189.6,54.68z M182.49,40.33c-0.45-0.5-0.59-1.79-0.29-2.67c0.18-0.52,0.67-0.8,1.05-0.6
    c0.5,0.26,0.74,1.5,0.52,2.61C183.62,40.43,182.91,40.79,182.49,40.33z M182.98,33.08c-0.37,0.03-0.48-0.01-0.66-0.3
    c-0.27-0.42-0.31-2.23-0.05-2.72c0.34-0.62,1.12-0.57,1.4,0.1c0.25,0.58,0.22,1.94-0.04,2.46
    C183.46,32.98,183.35,33.05,182.98,33.08z M186.26,25.58c-0.3-0.25-0.56-1.39-0.45-2c0.07-0.35,0.19-0.48,0.74-0.8
    c0.37-0.21,0.68-0.36,0.7-0.34c0.35,0.41,0.44,2.26,0.14,2.85C187.12,25.82,186.69,25.93,186.26,25.58z M178.93,32.79
    c0.01-0.14,0.04-0.17,0.07-0.07c0.04,0.09,0.03,0.19-0.01,0.23C178.96,32.99,178.93,32.92,178.93,32.79z M178.86,37.12
    c0.25-0.17,0.34-0.17,0.63-0.03c0.67,0.32,0.84,2.41,0.26,3.15c-0.41,0.52-0.55,0.39-0.8-0.74c-0.13-0.58-0.27-1.31-0.31-1.62
    C178.58,37.37,178.6,37.28,178.86,37.12z M189.06,59.36h10.88c1.14,0,2.06,0.82,2.06,1.84c0,1.02-0.92,1.84-2.06,1.84h-10.88
    c-1.14,0-2.06-0.83-2.06-1.84C187,60.19,187.92,59.36,189.06,59.36z M190.19,64.81h8.74c1.25,0,2.27,0.83,2.27,1.84
    c0,1.01-1.02,1.84-2.27,1.84h-8.74c-1.25,0-2.27-0.82-2.27-1.84C187.91,65.63,188.93,64.81,190.19,64.81z M205.48,44.41
    c0.16-0.02,0.39,0.05,0.5,0.16c0.18,0.18,0.16,0.25-0.36,0.9c-0.3,0.39-0.66,0.8-0.79,0.92c-0.25,0.22-0.25,0.21-0.19-0.53
    C204.7,44.99,205.01,44.46,205.48,44.41z" />
  </g>

  <!-- UABC -->
  <g class="STATS5084">
    <path class="hex" d="M294.88,44.98l22.75-39.41h45.5l22.75,39.41l-22.75,39.41h-45.5L294.88,44.98z" />
    <path class="hex-logo" d="M345.71,38.83l-1.68,7.9c-0.28,1.2-0.38,1.93-0.85,3.07c-0.33,0.74-1.37,1.26-2.11,1.27
    c-0.09-4.12-0.09-8.11-0.01-12.24h0h0l0,0l-18.43,0.11l0.01,12.2c-0.74,0-1.78-0.53-2.11-1.26c-0.47-1.15-0.57-1.87-0.86-3.07
    L318,38.9h0.03l-0.04-4.64l5.25,0.14l0-6.33c2.53,1.69,2.53,1.69,2.54,6.33l13.18-0.2c0-4.64,0-4.64,2.53-6.33l0,6.33l22.8-0.02
    l0,4.64L345.71,38.83z M327.15,41.16c1.33-0.73,2.88-1.08,4.65-1.08c1.65,0,3.09,0.3,4.36,0.91c1.26,0.61,2.23,1.43,2.92,2.48
    c0.69,1.04,1.03,2.18,1.03,3.4c0,0.96-0.19,1.8-0.58,2.53c-0.39,0.73-0.86,1.35-1.4,1.88c-0.54,0.53-1.5,1.41-2.9,2.66
    c-0.39,0.35-0.7,0.66-0.93,0.93c-0.23,0.27-0.41,0.51-0.52,0.73c-0.11,0.22-0.2,0.44-0.27,0.66c-0.06,0.22-0.15,0.61-0.28,1.17
    c-0.22,1.18-0.89,1.77-2.02,1.77c-0.59,0-1.09-0.19-1.49-0.58c-0.4-0.39-0.61-0.96-0.61-1.72c0-0.95,0.15-1.78,0.45-2.47
    c0.3-0.69,0.69-1.31,1.17-1.84c0.49-0.53,1.15-1.16,1.98-1.88c0.73-0.64,1.25-1.11,1.57-1.44c0.33-0.32,0.6-0.69,0.82-1.08
    c0.22-0.39,0.33-0.82,0.33-1.29c0-0.91-0.34-1.67-1.01-2.3c-0.68-0.62-1.55-0.94-2.61-0.94c-1.25,0-2.17,0.32-2.76,0.95
    c-0.59,0.63-1.09,1.56-1.5,2.78c-0.39,1.28-1.12,1.92-2.2,1.92c-0.64,0-1.17-0.23-1.61-0.67c-0.44-0.45-0.66-0.93-0.66-1.46
    c0-1.08,0.35-2.17,1.04-3.28C324.81,42.8,325.82,41.89,327.15,41.16z M331.39,60.74c0.72,0,1.32,0.25,1.8,0.73
    c0.49,0.48,0.73,1.09,0.73,1.8c0,0.8-0.25,1.42-0.76,1.87c-0.51,0.46-1.1,0.68-1.77,0.68c-0.7,0-1.3-0.22-1.81-0.67
    c-0.52-0.44-0.78-1.07-0.78-1.88c0-0.71,0.25-1.32,0.75-1.8C330.05,60.99,330.66,60.74,331.39,60.74z" />
  </g>

  <!-- DMML1 -->
  <g class="STATS5074">
    <path class="hex" d="M222.16,87.22l22.75-39.41h45.5l22.75,39.41l-22.75,39.41h-45.5L222.16,87.22z" />
    <path class="hex-logo" d="M288.29,101.4l-0.62,1.45l-5.33,2.13l-1.47-0.61l1.25-2.93l-3.94-7.66v9.51h-3.67v2.71h-3.98v-2.71h-5.15v2.71
    h-3.97v-2.71h-3.67V91.52l-4.05,4.89l-10.71-9.55h-3.24v-1.57c1.36-1.33,2.73-2.65,4.07-4h1.59v2.86l7.89,7.03l4.45-5.39h5.85v-3.61
    h-4.04V70.48h4.9v-2.41h3.24v-5.04h-0.66v-1.78h1.94v1.78h-0.66v5.04h3.24v2.41h4.89v11.69h-4.04v3.61h5.81l7.46,14.52h0
    L288.29,101.4z M270.49,100.75c0.64,0,1.17-0.53,1.17-1.18c0-0.65-0.52-1.17-1.17-1.17c-0.65,0-1.17,0.53-1.17,1.17
    C269.32,100.22,269.85,100.75,270.49,100.75z M269.28,97.83c0.65,0,1.17-0.53,1.17-1.18c0-0.65-0.53-1.17-1.17-1.17
    c-0.65,0-1.17,0.53-1.17,1.17C268.11,97.3,268.63,97.83,269.28,97.83z M267.66,90.57c0.54,0,0.97-0.43,0.97-0.97
    c0-0.53-0.43-0.97-0.97-0.97c-0.54,0-0.97,0.43-0.97,0.97C266.69,90.14,267.12,90.57,267.66,90.57z M267.18,86.98
    c0.54,0,0.97-0.43,0.97-0.97c0-0.53-0.43-0.97-0.97-0.97c-0.54,0-0.97,0.43-0.97,0.97C266.21,86.55,266.64,86.98,267.18,86.98z
    M264.66,93.81c0.54,0,0.97-0.43,0.97-0.97c0-0.53-0.43-0.97-0.97-0.97c-0.54,0-0.97,0.43-0.97,0.97
    C263.69,93.37,264.12,93.81,264.66,93.81z M260.83,90.79c-0.54,0-0.97,0.43-0.97,0.97c0,0.53,0.43,0.97,0.97,0.97
    c0.53,0,0.97-0.43,0.97-0.97C261.79,91.22,261.36,90.79,260.83,90.79z M262.73,89.12c0,0.53,0.43,0.97,0.97,0.97
    c0.53,0,0.97-0.43,0.97-0.97c0-0.53-0.43-0.96-0.97-0.96C263.17,88.16,262.73,88.59,262.73,89.12z M264.1,72.29
    c-1.63,0-2.96,1.3-2.96,2.91c0,1.61,1.32,2.91,2.96,2.91c1.63,0,2.96-1.3,2.96-2.91C267.06,73.6,265.74,72.29,264.1,72.29z
    M264.68,79.28v1.16H268h3.31v-1.16H264.68z M274.85,75.2c0-1.6-1.32-2.91-2.96-2.91s-2.96,1.3-2.96,2.91
    c0,1.61,1.32,2.91,2.96,2.91S274.85,76.81,274.85,75.2z M272.92,95.97c-0.65,0-1.17,0.53-1.17,1.17c0,0.65,0.53,1.18,1.17,1.18
    c0.65,0,1.17-0.53,1.17-1.18C274.09,96.5,273.56,95.97,272.92,95.97z M274.13,99.13c-0.65,0-1.17,0.53-1.17,1.17
    c0,0.65,0.53,1.17,1.17,1.17c0.65,0,1.17-0.53,1.17-1.17C275.3,99.66,274.78,99.13,274.13,99.13z M274.13,101.1
    c-0.44,0-0.79-0.35-0.79-0.79c0-0.43,0.35-0.79,0.79-0.79c0.44,0,0.79,0.35,0.79,0.79C274.92,100.74,274.57,101.1,274.13,101.1z
    M272.92,97.94c-0.44,0-0.79-0.36-0.79-0.79c0-0.44,0.35-0.79,0.79-0.79c0.44,0,0.79,0.35,0.79,0.79
    C273.71,97.58,273.35,97.94,272.92,97.94z M270.15,75.2c0-0.94,0.78-1.71,1.74-1.71s1.74,0.77,1.74,1.71c0,0.95-0.78,1.71-1.74,1.71
    S270.15,76.15,270.15,75.2z M264.1,76.92c-0.96,0-1.74-0.77-1.74-1.71c0-0.94,0.78-1.71,1.74-1.71s1.74,0.77,1.74,1.71
    C265.84,76.15,265.07,76.92,264.1,76.92z M269.28,95.87c0.44,0,0.79,0.35,0.79,0.79c0,0.44-0.35,0.79-0.79,0.79
    s-0.79-0.36-0.79-0.79C268.49,96.22,268.84,95.87,269.28,95.87z M270.49,98.79c0.43,0,0.79,0.35,0.79,0.79
    c0,0.44-0.35,0.79-0.79,0.79c-0.44,0-0.79-0.36-0.79-0.79C269.7,99.14,270.06,98.79,270.49,98.79z M261.5,106.7h3.98v1.5h-3.98
    V106.7z M261.5,110.01v-1.02h0v-0.16h3.98V110c1.32,0.7,2.22,2.07,2.23,3.66h-8.43C259.28,112.08,260.18,110.71,261.5,110.01z
    M270.63,106.7h3.98v1.5h-3.98V106.7z M270.63,110v-1.02v-0.16h3.98v0.16V110c1.32,0.7,2.23,2.07,2.22,3.66h-8.43
    C268.4,112.08,269.31,110.71,270.63,110z" />
  </g>

  <!-- DMML2 -->
  <g class="STATS5081">
    <path class="hex" d="M294.88,212.98l22.75-39.41h45.5l22.75,39.41l-22.75,39.41h-45.5L294.88,212.98z" />
    <path class="hex-logo" d="M361.26,222.4l-0.62,1.45l-5.33,2.13l-1.47-0.61l1.25-2.93l-3.94-7.66v9.52h-3.67v2.71h-3.98v-2.71h-5.15v2.71
    h-3.97v-2.71h-3.67v-11.77l-4.05,4.88l-10.71-9.55h-3.24v-1.57c1.36-1.33,2.73-2.65,4.07-4h1.59v2.86l7.89,7.03l4.45-5.39h5.85
    v-3.61h-4.04v-11.69h4.9v-2.41h3.24v-5.04H340v-1.78h1.94v1.78h-0.66v5.04h3.24v2.41h4.89v11.69h-4.04v3.61h5.8v0l0,0l7.46,14.52
    h-0.01L361.26,222.4z M342.98,215.17v0.4h3.14v-0.4H342.98z M344,211.39l-0.35-0.2l-1.64,2.77l0.35,0.2L344,211.39z M344,222.53
    c0.85,0,1.54-0.69,1.54-1.54c0-0.85-0.69-1.54-1.54-1.54c-0.85,0-1.54,0.69-1.54,1.54C342.45,221.83,343.14,222.53,344,222.53z
    M342.81,215.32c0-0.85-0.69-1.54-1.54-1.54c-0.86,0-1.54,0.69-1.54,1.54c0,0.85,0.69,1.54,1.54,1.54
    C342.12,216.86,342.81,216.17,342.81,215.32z M338.51,219.46l0.35,0.2l1.64-2.77l-0.35-0.2L338.51,219.46z M339.67,215.57v-0.4
    h-3.14v0.4H339.67z M339.77,221.26h2.46v-0.36h-2.46V221.26z M337.99,222.53c0.85,0,1.54-0.69,1.54-1.54c0-0.85-0.69-1.54-1.54-1.54
    c-0.85,0-1.54,0.69-1.54,1.54C336.44,221.83,337.13,222.53,337.99,222.53z M334.84,213.79c-0.85,0-1.54,0.69-1.54,1.54
    c0,0.85,0.69,1.54,1.54,1.54c0.85,0,1.54-0.69,1.54-1.54C336.39,214.48,335.7,213.79,334.84,213.79z M336.29,209.59
    c0,0.85,0.69,1.54,1.54,1.54c0.85,0,1.54-0.69,1.54-1.54c0-0.85-0.69-1.54-1.54-1.54C336.98,208.05,336.29,208.74,336.29,209.59z
    M337.08,193.29c-1.63,0-2.96,1.3-2.96,2.91c0,1.61,1.32,2.91,2.96,2.91c1.63,0,2.96-1.3,2.96-2.91
    C340.04,194.59,338.71,193.29,337.08,193.29z M337.65,200.28v1.16h3.32h3.31v-1.16H337.65z M347.82,196.2c0-1.6-1.32-2.91-2.96-2.91
    c-1.64,0-2.96,1.3-2.96,2.91c0,1.61,1.32,2.91,2.96,2.91C346.5,199.11,347.82,197.81,347.82,196.2z M344.66,208.1
    c-0.85,0-1.54,0.69-1.54,1.54c0,0.85,0.69,1.54,1.54,1.54c0.85,0,1.54-0.69,1.54-1.54C346.2,208.79,345.51,208.1,344.66,208.1z
    M347.75,213.65c-0.85,0-1.54,0.69-1.54,1.54c0,0.85,0.69,1.54,1.54,1.54c0.85,0,1.54-0.69,1.54-1.54
    C349.29,214.33,348.6,213.65,347.75,213.65z M343.12,196.2c0-0.94,0.78-1.71,1.74-1.71c0.96,0,1.74,0.77,1.74,1.71
    c0,0.95-0.78,1.71-1.74,1.71C343.9,197.91,343.12,197.14,343.12,196.2z M337.08,197.91c-0.96,0-1.74-0.77-1.74-1.71
    c0-0.94,0.78-1.71,1.74-1.71c0.96,0,1.74,0.77,1.74,1.71C338.82,197.14,338.04,197.91,337.08,197.91z M334.48,227.7h3.98v1.5h-3.98
    V227.7z M334.48,231.01v-1.02h0v-0.16h3.98V231c1.32,0.7,2.22,2.07,2.23,3.65h-8.43C332.25,233.08,333.15,231.71,334.48,231.01z
    M343.6,227.7h3.98v1.5h-3.98V227.7z M343.6,231v-1.02v-0.16h3.98v0.16V231c1.32,0.7,2.23,2.07,2.22,3.65h-8.43
    C341.38,233.08,342.28,231.7,343.6,231z" />
  </g>

  <!-- DMAS -->
  <g class="STATS5080">
    <path class="hex" d="M222.16,171.22l22.75-39.41h45.5l22.75,39.41l-22.75,39.41h-45.5L222.16,171.22z" />
    <path class="hex-logo" d="M288.75,157.92v0.98c0,0.71-0.28,1.31-0.84,1.78c-0.56,0.47-1.22,0.7-1.99,0.7h-2.98
    c-0.8,0-1.52-0.23-2.15-0.69c-0.68-0.48-1.01-1.09-1.01-1.8v-10.27c0-0.72,0.34-1.32,1.01-1.81c0.64-0.47,1.36-0.7,2.15-0.7h2.98
    c0.77,0,1.43,0.24,1.99,0.73c0.56,0.48,0.84,1.08,0.84,1.78v1.09h-2.35v-0.57c0-0.77-0.34-1.16-1.02-1.16h-2.28
    c-0.34,0-0.58,0.09-0.74,0.3c-0.16,0.2-0.24,0.44-0.24,0.73v9.48c0,0.29,0.08,0.53,0.24,0.73c0.16,0.19,0.4,0.3,0.74,0.3h2.28
    c0.66,0,1.01-0.36,1.02-1.06c0-0.19,0-0.37,0-0.55H288.75z M278.68,191.77c-0.13,0.1-0.28,0.16-0.45,0.16h-1.17
    c-0.48-0.87-1.32-2.31-2.53-4.32c-1.21-2-2.29-3.83-3.26-5.47v9.79h-2.38v-14.66c0-0.16,0.06-0.3,0.19-0.42
    c0.13-0.12,0.28-0.18,0.45-0.18h1.35c0,0.01,0.07,0.15,0.22,0.41c0.15,0.26,0.34,0.61,0.58,1.05c0.24,0.44,0.52,0.93,0.83,1.49
    c0.32,0.55,0.64,1.13,0.97,1.72c0.34,0.6,0.67,1.19,1,1.78c0.33,0.58,0.63,1.12,0.91,1.61c0.28,0.48,0.51,0.89,0.7,1.24
    c0.2,0.34,0.33,0.57,0.39,0.68v-9.99h2.38v14.68C278.87,191.5,278.8,191.65,278.68,191.77z M277.46,160.53
    c-0.64,0.57-1.42,0.85-2.35,0.85h-2.59c-0.93,0-1.73-0.28-2.4-0.85c-0.68-0.57-1.02-1.28-1.02-2.12v-9.3c0-0.85,0.34-1.57,1.02-2.15
    c0.67-0.56,1.47-0.85,2.4-0.85h2.59c0.91,0,1.69,0.29,2.35,0.87c0.66,0.58,1,1.29,1,2.12v9.3
    C278.45,159.22,278.12,159.93,277.46,160.53z M276.11,149.5c0-0.63-0.24-1.09-0.73-1.37c-0.16-0.08-0.34-0.13-0.56-0.13h-2.15
    c-0.38,0-0.69,0.16-0.93,0.5c-0.2,0.28-0.3,0.61-0.3,1v8.51c0,0.63,0.23,1.08,0.69,1.36c0.16,0.09,0.34,0.14,0.54,0.14h2.15
    c0.4,0,0.72-0.16,0.97-0.48c0.21-0.3,0.31-0.63,0.31-1.02V149.5z M265.39,161.44l-3.44-6.61h-1.85v6.61h-2.36v-15.29h6.4
    c0.85,0,1.57,0.26,2.16,0.77c0.61,0.51,0.92,1.17,0.92,1.96v3.57c0,1.14-0.53,1.88-1.58,2.22c-0.33,0.11-0.69,0.17-1.09,0.17
    l3.27,6.61H265.39z M264.86,152.3c0.01-0.12,0.02-0.25,0.02-0.37v-2.67c0-0.53-0.22-0.92-0.67-1.16c-0.14-0.07-0.3-0.1-0.48-0.1
    h-3.63v4.96h4.02C264.57,152.96,264.81,152.74,264.86,152.3z M254.6,191.95l-3.43-6.6h-1.86v6.6h-2.36v-15.29h6.4
    c0.84,0,1.57,0.26,2.17,0.77c0.61,0.51,0.92,1.17,0.92,1.96v3.57c0,1.14-0.53,1.88-1.58,2.22c-0.33,0.11-0.69,0.17-1.09,0.17
    l3.27,6.6H254.6z M254.07,182.82c0.02-0.12,0.03-0.24,0.03-0.37v-2.67c0-0.53-0.23-0.92-0.68-1.16c-0.14-0.07-0.3-0.1-0.48-0.1
    h-3.63v4.96h4.02C253.78,183.48,254.02,183.26,254.07,182.82z M255.74,154.16c-0.47,0.44-1.09,0.67-1.87,0.67h-4.56v6.61h-2.36
    v-15.29h6.4c0.84,0,1.57,0.26,2.17,0.77c0.61,0.51,0.92,1.17,0.92,1.96v3.57C256.44,153.15,256.21,153.72,255.74,154.16z
    M254.09,149.26c0-0.53-0.23-0.92-0.68-1.16c-0.14-0.07-0.3-0.1-0.48-0.1h-3.63v4.96h4.02c0.45,0,0.7-0.22,0.74-0.66
    c0.02-0.12,0.03-0.25,0.03-0.37V149.26z M260.65,189.01c0,0.68,0.33,1.03,0.97,1.03h2.67c0.33,0,0.58-0.1,0.75-0.3
    c0.18-0.2,0.27-0.44,0.27-0.73v-12.36l2.35-0.02v12.77c0,0.7-0.32,1.3-0.97,1.8c-0.61,0.46-1.32,0.7-2.11,0.7h-3.11
    c-0.81,0-1.52-0.23-2.15-0.69c-0.68-0.48-1.01-1.09-1.01-1.81v-12.76h2.35V189.01z M281.68,188.65c-0.5,0-0.89-0.13-1.16-0.38
    c-0.27-0.25-0.4-0.61-0.4-1.07c0-0.46,0.13-0.81,0.4-1.07c0.28-0.26,0.66-0.39,1.16-0.39c1.03,0,1.54,0.48,1.54,1.44
    c0,0.46-0.13,0.82-0.4,1.07C282.56,188.53,282.18,188.65,281.68,188.65z M281.71,189.73c1.25,0,1.87,0.59,1.87,1.77
    c0,0.83-0.77,2.2-2.31,4.11l-0.99-0.18c0.25-0.5,0.49-1.02,0.73-1.53c0.23-0.51,0.49-1.01,0.78-1.5c-0.48,0.39-0.96,0.35-1.45-0.11
    c-0.25-0.22-0.38-0.54-0.38-0.96c0-0.42,0.15-0.79,0.43-1.12C280.67,189.89,281.11,189.73,281.71,189.73z" />
  </g>

  <!-- APM -->
  <g class="STATS5073">
    <path class="hex" d="M149.68,128.98l22.75-39.41h45.5l22.75,39.41l-22.75,39.41h-45.5L149.68,128.98z" />
    <path class="hex-logo" d="M205.87,134.15c-3.51,0.13-6.81-1.98-10.29-4.22c-0.14-0.09-0.28-0.18-0.41-0.26c-0.33,0.3-0.77,0.49-1.25,0.49
    c-1.03,0-1.86-0.84-1.86-1.87c0-0.17,0.02-0.33,0.07-0.49c-2.29-1.29-4.63-2.28-7.05-2.3c-0.02,0-0.04,0-0.06,0
    c-7.16,0-14.95,8.7-15.03,8.79l-1.33-1.17c0.34-0.38,8.4-9.39,16.36-9.39c0.02,0,0.05,0,0.07,0c2.97,0.02,5.7,1.24,8.33,2.77
    c0.16-0.05,0.33-0.07,0.51-0.07c0.91,0,1.67,0.65,1.83,1.51c0.26,0.17,0.53,0.34,0.79,0.51c3.24,2.08,6.26,4.04,9.27,3.94
    c6.08-0.24,13.52-11.09,13.59-11.2l1.46,1C220.54,122.66,212.84,133.88,205.87,134.15z M215.51,114.35c-1.03,0-1.86-0.83-1.86-1.86
    c0-1.03,0.84-1.86,1.86-1.86c1.03,0,1.87,0.84,1.87,1.86C217.38,113.52,216.54,114.35,215.51,114.35z M184.95,118.54
    c-1.03,0-1.86-0.84-1.86-1.86c0-1.03,0.83-1.86,1.86-1.86c1.03,0,1.86,0.83,1.86,1.86C186.82,117.7,185.98,118.54,184.95,118.54z
    M170.35,141.78c1.03,0,1.86,0.83,1.86,1.86c0,1.03-0.83,1.86-1.86,1.86c-1.03,0-1.86-0.84-1.86-1.86
    C168.49,142.61,169.32,141.78,170.35,141.78z M206.54,140.52c1.03,0,1.86,0.84,1.86,1.86c0,1.03-0.84,1.86-1.86,1.86
    c-1.03,0-1.86-0.83-1.86-1.86C204.67,141.36,205.51,140.52,206.54,140.52z" />
  </g>

  <!-- PM -->
  <g class="STATS5076">
    <path class="hex" d="M76.48,171.22l22.75-39.41h45.5l22.75,39.41l-22.75,39.41h-45.5L76.48,171.22z" />
    <path class="hex-logo" d="M123.95,169.93c0.02,0.1,0.03,0.19,0.03,0.29c0,1.03-0.84,1.86-1.86,1.86c-0.09,0-0.19-0.01-0.28-0.02
    L97.8,196.3l-1.26-1.25l23.87-24.08c-0.1-0.23-0.16-0.49-0.16-0.76c0-1.03,0.83-1.86,1.86-1.86c0.27,0,0.52,0.06,0.75,0.16
    l22.61-22.8l1.26,1.25L123.95,169.93z M125.36,152.37c-0.95-0.39-1.41-1.48-1.02-2.43c0.39-0.95,1.48-1.41,2.43-1.02
    c0.95,0.39,1.41,1.48,1.02,2.43C127.4,152.31,126.31,152.76,125.36,152.37z M102.43,175.51c-1.03,0-1.87-0.83-1.87-1.86
    c0-1.03,0.84-1.86,1.87-1.86c1.03,0,1.86,0.83,1.86,1.86C104.29,174.68,103.46,175.51,102.43,175.51z M117.96,188.54
    c0.95,0.39,1.41,1.48,1.02,2.43c-0.39,0.95-1.48,1.41-2.43,1.02c-0.95-0.39-1.41-1.48-1.02-2.43
    C115.92,188.6,117.01,188.15,117.96,188.54z M140.9,165.4c1.03,0,1.86,0.84,1.86,1.86c0,1.03-0.84,1.87-1.86,1.87
    c-1.03,0-1.86-0.84-1.86-1.87C139.03,166.24,139.86,165.4,140.9,165.4z" />
  </g>

  <!-- DABI -->
  <g class="STATS5079">
    <path class="hex" d="M149.68,212.98l22.75-39.41h45.5l22.75,39.41l-22.75,39.41h-45.5L149.68,212.98z" />
    <path class="hex-logo" d="M176.66,233.62v-10.5l0.01-10.49l7.17-4.15l7.18-4.15l0.05,4.4c0.01,2.43,0.09,4.42,0.16,4.42
    c0.07,0,2.71-1.91,5.85-4.26l5.73-4.26l0.05,4.33l0.03,4.33l5.57-4.17c3.05-2.3,5.64-4.21,5.75-4.29c0.13-0.09,0.17,2.83,0.17,14.33
    v14.45H176.66z M187.43,222.86h-6.96v3.48v3.47c2.32,0,4.64,0,6.96,0V222.86z M199.06,222.86h-7.07v3.48v3.47h7.07V222.86z
    M210.57,222.86h-6.96v3.48v3.47h6.96V222.86z M176.75,193.09l4.25-0.11h1.4v6.52v8.47c-0.98,0.51-4.94,2.85-5.73,3.31
    L176.75,193.09z" />
  </g>

  <!-- DPIP -->
  <g class="STATS5082">
    <path class="hex" d="M76.48,255.22l22.75-39.41h45.5l22.75,39.41l-22.75,39.41h-45.5L76.48,255.22z" />
    <path class="hex-logo" d="M139.61,259.6c-0.96,2.9-2,4.83-4.77,4.83h-14.3v1.21h9.53v3.63c0,2.75-2.37,4.15-4.77,4.85
    c-3.61,1.05-6.51,0.89-9.53,0c-2.52-0.74-4.77-2.26-4.77-4.85v-9.08c0-2.61,2.16-4.85,4.77-4.85h9.53c3.18,0,5.96-2.76,5.96-6.05
    v-4.23h3.58c2.78,0,4.09,2.08,4.77,4.83C140.56,253.73,140.6,256.61,139.61,259.6z M125.9,271.7c0.99,0,1.79-0.82,1.79-1.82
    c0-1-0.8-1.81-1.79-1.81c-0.99,0-1.79,0.81-1.79,1.81C124.11,270.88,124.91,271.7,125.9,271.7z M125.29,254.15h-9.53
    c-3.24,0-5.96,2.78-5.96,5.92v4.36h-3.28c-2.77,0-4.39-2.01-5.07-4.83c-0.91-3.79-0.88-6.06,0-9.69c0.76-3.17,3.19-4.83,5.96-4.83
    h13.12v-1.21h-9.54v-3.64c0-2.75,0.73-4.24,4.77-4.96c1.37-0.24,2.93-0.38,4.56-0.39c1.63-0.01,3.33,0.11,4.97,0.39
    c2.59,0.43,4.77,2.37,4.77,4.96v9.08C130.07,251.97,127.95,254.15,125.29,254.15z M115.16,237.8c-0.99,0-1.79,0.82-1.79,1.82
    c0,1,0.8,1.81,1.79,1.81c0.99,0,1.79-0.81,1.79-1.81C116.95,238.62,116.15,237.8,115.16,237.8z" />
  </g>

  <!-- PSF -->
  <g class="STATS5094">
    <path class="hex" d="M3.76,212.98l22.75-39.41h45.5l22.75,39.41l-22.75,39.41h-45.5L3.76,212.98z" />
    <path class="hex-logo" d="M79.08,227.98v-4.25h4.26v4.25H79.08z M73.4,223.73h4.26v4.25H73.4V223.73z M67.72,223.73h4.26v4.25h-4.26
    V223.73z M67.72,218.06h4.26v4.25h-4.26V218.06z M67.72,212.4h4.26v4.25h-4.26V212.4z M62.05,223.73h4.26v4.25h-4.26V223.73z
    M62.05,218.06h4.26v4.25h-4.26V218.06z M62.05,212.4h4.26v4.25h-4.26V212.4z M62.05,206.73h4.26v4.25h-4.26V206.73z M62.05,201.06
    h4.26v4.25h-4.26V201.06z M56.37,223.73h4.26v4.25h-4.26V223.73z M56.37,218.06h4.26v4.25h-4.26V218.06z M56.37,212.4h4.26v4.25
    h-4.26V212.4z M56.74,216.28h3.51v-3.51h-3.51V216.28z M56.37,206.73h4.26v4.25h-4.26V206.73z M56.37,201.06h4.26v4.25h-4.26V201.06
    z M56.37,195.4h4.26v4.25h-4.26V195.4z M56.37,189.73h4.26v4.25h-4.26V189.73z M50.69,223.73h4.26v4.25h-4.26V223.73z M50.69,218.06
    h4.26v4.25h-4.26V218.06z M50.69,212.4h4.26v4.25h-4.26V212.4z M50.69,206.73h4.26v4.25h-4.26V206.73z M50.69,201.06h4.26v4.25
    h-4.26V201.06z M50.69,195.4h4.26v4.25h-4.26V195.4z M50.69,189.73h4.26v4.25h-4.26V189.73z M51.06,193.61h3.52v-3.51h-3.52V193.61z
    M50.69,184.06h4.26v4.25h-4.26V184.06z M45.01,223.73h4.26v4.25h-4.26V223.73z M45.01,218.06h4.26v4.25h-4.26V218.06z
    M45.38,221.95h3.52v-3.51h-3.52V221.95z M45.01,212.4h4.26v4.25h-4.26V212.4z M45.01,206.73h4.26v4.25h-4.26V206.73z M45.01,201.06
    h4.26v4.25h-4.26V201.06z M45.01,195.4h4.26v4.25h-4.26V195.4z M45.01,189.73h4.26v4.25h-4.26V189.73z M45.01,184.06h4.26v4.25
    h-4.26V184.06z M39.34,223.73h4.26v4.25h-4.26V223.73z M39.34,218.06h4.26v4.25h-4.26V218.06z M39.34,212.4h4.26v4.25h-4.26V212.4z
    M39.34,206.73h4.26v4.25h-4.26V206.73z M39.34,201.06h4.26v4.25h-4.26V201.06z M39.71,204.95h3.51v-3.51h-3.51V204.95z
    M39.34,195.4h4.26v4.25h-4.26V195.4z M39.34,189.73h4.26v4.25h-4.26V189.73z M33.66,223.73h4.26v4.25h-4.26V223.73z M33.66,218.06
    h4.26v4.25h-4.26V218.06z M33.66,212.4h4.26v4.25h-4.26V212.4z M33.66,206.73h4.26v4.25h-4.26V206.73z M33.66,201.06h4.26v4.25
    h-4.26V201.06z M27.98,223.73h4.26v4.25h-4.26V223.73z M27.98,218.06h4.26v4.25h-4.26V218.06z M27.98,212.4h4.26v4.25h-4.26V212.4z
    M22.3,223.73h4.26v4.25H22.3V223.73z M16.62,223.73h4.26v4.25h-4.26V223.73z" />
  </g>

  <!-- HPC -->
  <g class="STATS5083">
    <path class="hex" d="M294.88,128.98l22.75-39.41h45.5l22.75,39.41l-22.75,39.41h-45.5L294.88,128.98z" />
    <path class="hex-logo" d="M340.62,157.66v-55.01l28.08,8.69v37.63L340.62,157.66z M357.64,152.01l5.7-1.73v-6.44l-5.7,1.18V152.01z
    M357.64,144.63l5.7-1.15v-6.44l-5.7,0.59V144.63z M357.64,137.25l5.7-0.56v-6.44l-5.7,0.01V137.25z M350.31,154.24l6.87-2.09v-7.04
    l-6.87,1.42V154.24z M357.64,129.87v-6.8l-0.46-0.05v6.84L357.64,129.87z M350.31,146.1l6.87-1.38v-7.04l-6.87,0.71V146.1z
    M350.31,137.97l6.87-0.68v-7.04l-6.87,0.01V137.97z M341.32,148.39l8.43-1.74v-0.43l-8.43,1.7V148.39z M350.31,129.84v-7.49
    l-0.56-0.06l0,7.54L350.31,129.84z M341.32,139.33l8.43-0.88v-0.43l-8.43,0.83V139.33z M341.32,130.28l8.43-0.01v-0.43l-8.43-0.03
    V130.28z M341.32,121.46l8.43,0.83v-0.43l-8.43-0.88V121.46z M341.32,112.4l8.43,1.7v-0.43l-8.43-1.74V112.4z M350.31,106.08
    l-0.56-0.17l0,7.76l0.56,0.12V106.08z M350.31,121.92l6.87,0.71v-7.04l-6.87-1.38V121.92z M357.64,108.31l-0.46-0.14v7.04l0.46,0.1
    V108.31z M357.64,122.68l5.7,0.59v-6.44l-5.7-1.15V122.68z M363.73,110.16l-0.39-0.12v6.44l0.39,0.08V110.16z M368.37,117.85
    l-4.64-0.93v6.4l4.64,0.48V117.85z M368.37,124.13l-4.64-0.46v6.22l4.64,0.02V124.13z M368.37,130.24l-4.64,0.01v6.4l4.64-0.46
    V130.24z M368.37,136.52l-4.64,0.48v6.4l4.64-0.93V136.52z M368.37,142.8l-4.64,0.96v6.4l4.64-1.41V142.8z M311.82,111.34
    l28.08-8.69v55.01l-28.08-8.69V111.34z M330.77,146.65l8.43,1.74v-0.48l-8.43-1.7V146.65z M330.77,138.46l8.43,0.88v-0.48
    l-8.43-0.83V138.46z M330.77,130.27l8.43,0.01v-0.48l-8.43,0.03V130.27z M330.77,122.29l8.43-0.83v-0.48l-8.43,0.88V122.29z
    M330.77,114.1l8.43-1.7v-0.48l-8.43,1.74v-7.75l-0.56,0.17v7.7l0.55-0.11L330.77,114.1z M323.35,152.15l6.87,2.09v-7.71l-6.87-1.42
    V152.15z M323.35,144.72l6.87,1.38v-7.71l-6.87-0.71V144.72z M323.35,137.29l6.87,0.68v-7.71l-6.87-0.01V137.29z M323.35,129.87
    l6.87-0.03v-7.49l-6.87,0.68V129.87z M323.35,122.63l6.87-0.71v-7.71l-6.87,1.38V122.63z M323.35,108.17l-0.46,0.14v6.99l0.46-0.1
    V108.17z M317.18,150.27l5.7,1.73v-6.99l-5.7-1.18V150.27z M317.18,143.48l5.7,1.15v-6.99l-5.7-0.59V143.48z M317.18,136.69
    l5.7,0.56v-6.99l-5.7-0.01V136.69z M317.18,129.89l5.7-0.02v-6.8l-5.7,0.56V129.89z M317.18,123.27l5.7-0.59v-6.99l-5.7,1.15V123.27
    z M317.18,110.04l-0.39,0.12v6.4l0.39-0.08V110.04z M312.15,148.75l4.64,1.41v-6.4l-4.64-0.96V148.75z M312.15,142.47l4.64,0.93V137
    l-4.64-0.48V142.47z M312.15,136.19l4.64,0.46v-6.4l-4.64-0.01V136.19z M312.15,129.91l4.64-0.02v-6.22l-4.64,0.46V129.91z
    M312.15,123.8l4.64-0.48v-6.4l-4.64,0.93V123.8z M330.77,113.66L330.77,113.66l-0.01,0.01l0-0.01L330.77,113.66z" />
  </g>
</svg>
