<svg xmlns="http://www.w3.org/2000/svg" viewBox="0 0 117.18 48.02" class="uofg">
  <path fill="#003865"
    d="m114.74 32-3.83 9.36h-.8l-3.54-8.38-3.57 8.38h-.83l-4.43-9.99c-.41-.92-.83-1.37-2.2-1.51v-.54h5.77v.54c-1.75.09-1.87.59-1.25 1.99l3.21 7.16 2.91-6.9c-.65-1.51-1.16-2.05-2.2-2.17l-.71-.09v-.54h6.15v.54c-1.46.03-1.9.47-1.28 1.96l2.91 7.07 2.85-6.95c.65-1.58.15-2.08-1.72-2.08v-.54h4.99v.54c-1.12.13-1.83.7-2.43 2.15zm-.03-21.93-5.05 12.6c-.89 2.2-1.57 3.18-2.61 3.18-.71 0-1.22-.45-1.22-1.04 0-1.22 1.72-.92 2.46-1.67.33-.33.77-1.1 1.01-1.69l.89-2.23-4.6-9.77c-.57-1.22-1.1-1.73-2.35-1.75v-.54h5.97v.54c-1.81.03-2.02.56-1.43 1.81l3.36 7.25 2.52-6.3c.89-2.26.33-2.7-1.43-2.76v-.54h4.93v.54c-1.2.14-1.88.98-2.45 2.37zm-14.79 9.22c-1.75 0-3-1.46-3-3.45V8.47h-1.37v-.48c1.16-.56 2.17-1.93 2.85-3.77h.51v2.94h3.67l-.47 1.31h-3.2v6.92c0 1.87 1.34 2.5 1.96 2.5.66 0 1.25-.51 1.81-1.49l.48.45c-.72 1.54-1.88 2.44-3.24 2.44zm-11.72-.92c1.82 0 2.47-.6 2.47-2.17v-5.97c0-1.16-.15-1.31-.92-1.46l-1.4-.27v-.48l3.86-1.34h.45v9.98c0 1.04.56 1.7 2.14 1.7v.56h-6.6v-.55zm3.24-16.11c-.71 0-1.28-.51-1.28-1.13C90.17.5 90.73 0 91.44 0c.71 0 1.31.5 1.31 1.13 0 .62-.59 1.13-1.31 1.13zM86.77 15.9c0 1.93-1.61 3.39-3.69 3.39-.56 0-.98-.09-1.31-.21-.33-.09-.57-.18-.8-.18-.18 0-.36.12-.51.35h-.45l-.33-3.33h.48c.35 1.79 1.48 2.79 2.82 2.79 1.19 0 2.11-.89 2.11-1.96 0-.62-.15-1.01-.95-1.81-2.11-2.11-4.46-2.32-4.46-4.78 0-1.96 1.55-3.33 3.8-3.33.8 0 1.63.18 2.38.48l.06 2.7h-.51c-.21-1.52-1.19-2.46-2.38-2.46-.98 0-1.81.68-1.81 1.66.03 2.62 5.55 3.06 5.55 6.69zm-3.86 15.87c-.45-.03-1.84-.15-2.97-.36.18.33.5.95.5 1.9 0 2.2-1.9 4.31-5.2 4.31-.56 0-.83-.06-1.37-.24-.47.51-1.81.83-1.81 1.51 0 .75 1.28 1.04 4.25 1.07 3.36.03 4.52.18 5.41 1.07.71.71.89 1.46.89 2.08 0 1.93-2.61 4.9-8.11 4.9-3.09 0-4.57-1.37-4.57-2.82 0-1.72 1.81-1.99 3.18-3.65-1.6-.15-2.82-1.16-2.82-2.11 0-1.37 1.99-1.43 3.03-2.2-1.81-.71-2.85-1.99-2.85-3.69 0-2.56 2.29-4.55 5.23-4.55 1.37 0 2.53.42 3.33 1.19 1.34 0 2.58-.15 3.89-.3v1.89zM71.77 44.21c0 1.4 1.96 2.97 4.4 2.97 2.53 0 4.9-1.66 4.9-3.54 0-1.1-.92-1.66-1.99-1.75-.77-.09-4.51-.12-5.38-.24-.83.99-1.93 1.41-1.93 2.56zm3.57-14.64c-1.13 0-2.88.62-2.88 3.39 0 1.75.89 4.1 3.15 4.1 1.72 0 2.85-1.43 2.85-3.48 0-2.56-1.31-4.01-3.12-4.01zm.87-20.54c-.32-.15-.68-.29-1.04-.29-.53 0-.86.36-1.16.77-.39.53-.71 1.04-.95 1.48v5.76c0 1.22.45 1.61 1.93 1.61h1.13v.56h-7.04v-.56c1.52-.03 1.99-.65 1.99-2.23V9.27l-1.99-.72v-.5l3.39-1.19h.6v3.15h.06c1.48-2.44 1.84-3 2.82-3 .36 0 .45.03 1.01.27.3.12.83.24 1.54.44l-.71 1.79a5.47 5.47 0 0 1-1.58-.48zm-7.56 29.04c0 1.93-1.61 3.39-3.68 3.39-.56 0-.98-.09-1.31-.21-.32-.09-.56-.18-.8-.18-.18 0-.35.12-.5.36h-.45l-.32-3.33h.47c.36 1.78 1.49 2.8 2.83 2.8 1.19 0 2.11-.9 2.11-1.96 0-.63-.15-1.01-.95-1.82-2.11-2.11-4.46-2.32-4.46-4.78 0-1.96 1.54-3.33 3.8-3.33.8 0 1.63.18 2.38.48l.06 2.7h-.5c-.21-1.52-1.19-2.47-2.38-2.47-.98 0-1.81.68-1.81 1.66-.01 2.61 5.51 3.06 5.51 6.69zm-9.79-25.44c0 3.09 2.17 5.17 4.51 5.17 1.49 0 2.65-.59 3.78-1.93l.33.36c-1.25 1.58-3.12 3.06-5.29 3.06-2.91 0-5.17-2.65-5.17-6.09 0-3.15 2.11-6.36 5.73-6.36 4.01 0 3.92 2.88 4.9 3.86v.68h-8.68c-.05.45-.11.86-.11 1.25zm6.3-2.02c-.33-1.93-1.51-3.21-2.94-3.21-.98 0-2.46.45-3.15 3.21h6.09zm-10.33-.74-4.1 9.33h-.86l-4.31-9.86c-.45-1.04-.83-1.4-1.31-1.49l-.92-.15v-.54h6.06v.54c-1.81.06-2.38.29-1.67 1.69l3.15 7.4 3.03-6.86c.54-1.22.27-2.08-1.9-2.23v-.54h5.17v.54c-1.12.2-1.77.86-2.34 2.17zm-11.01 9.06h-6.6v-.56c1.81 0 2.47-.6 2.47-2.17v-5.97c0-1.16-.15-1.31-.92-1.46l-1.4-.27v-.48l3.86-1.34h.45v9.98c0 1.04.56 1.7 2.14 1.7v.57zM40.46 2.26c-.72 0-1.28-.51-1.28-1.13 0-.63.57-1.13 1.28-1.13.71 0 1.31.5 1.31 1.13 0 .62-.6 1.13-1.31 1.13zM29.98 18.37c.86-.03 1.36-.24 1.69-.57.56-.57.62-2.74.62-6.69 0-2.38-1.16-3.12-2.35-3.12-.95 0-2.4.83-3.95 1.9v6.45c0 1.63.39 2.02 1.99 2.02v.56h-5.97v-.56c1.31 0 1.99-.72 1.99-1.87v-6.24c0-1.1-.12-1.31-.89-1.46l-1.01-.2v-.48l3.42-1.25H26v2.32c1.99-1.25 3.65-2.35 5.11-2.35 2.02 0 3.18 1.48 3.18 4.45 0 3.95-.21 4.72-.24 5.89-.03.8.44 1.19 1.66 1.19h.65v.56h-6.39v-.55zM19.94 3.74v8.02c0 3.68-2.35 7.64-8.8 7.64-5.67 0-8.59-3.24-8.59-7.49V3.24c0-1.9-.53-2.2-2.56-2.23V.45h7.64v.56h-.26c-1.63 0-2.35.45-2.35 2.17v8.26c0 4.01 2.35 6.42 6.77 6.42 3.36 0 6.78-1.4 6.78-6.44V4.49c0-2.85-.45-3.36-2.91-3.48V.45h6.98v.56c-1.99.03-2.7.83-2.7 2.73zM3.66 41.45c-1.4 0-2.64-2.23-2.64-4.7 0-4.81 5.17-7.79 6.95-7.79.86 0 2.7 1.19 2.7 4.37 0 5.66-5.62 8.12-7.01 8.12zm2.79-11.38c-1.87 0-3.54 3.59-3.54 6.57 0 2.49 1.07 3.71 2.08 3.71 2.38 0 3.77-3.86 3.77-6.6.01-2.08-1-3.68-2.31-3.68zm5.37-.32c.71-.09 1.43-.21 2.17-.39.45-2.44 1.34-4.99 3-6.65 1.04-1.04 2.35-1.6 3.51-1.6 1.16 0 2.11.65 2.11 1.43 0 .47-.36.86-.83.86-.98 0-1.78-1.22-2.64-1.22-1.16 0-2.11 1.31-2.53 3.27l-.8 3.89h2.55l-.3.98h-2.44L14.11 39c-1.16 6.66-4.55 9.03-7.34 9.03-1.25 0-2.29-.62-2.29-1.37 0-.48.48-.89.98-.89 1.1 0 1.69 1.31 2.82 1.31.68 0 1.28-.33 1.81-.86 1.48-1.49 2.05-6.56 2.17-7.28l1.52-8.62h-2.05l.09-.57zm23.44 3.95h-1.1v-.53h8.02v.53c-1.48.09-2.08.6-2.08 1.87v4.13c-2.94 1.52-6.71 1.87-7.96 1.87-6.51 0-9.54-5.02-9.54-9.36 0-4.46 3.12-10.04 10.37-10.04 3.18 0 5.29 1.01 5.91 1.01.27 0 .51-.06.68-.21h.42v4.81h-.59c-.81-3.71-3.33-4.87-6.09-4.87-5.23 0-7.9 4.34-7.9 9.12 0 6.09 4.28 8.79 7.7 8.79 1.37 0 2.88-.3 4.55-1.13v-3.74c-.01-1.69-.61-2.25-2.39-2.25zM43.74 23l-1.34-.15v-.5l3.8-1.22h.44v17.62c0 1.22.57 1.78 1.72 1.78h.51v.57h-6.68v-.57c1.9 0 2.46-.56 2.46-1.99V24.19c.01-.83-.08-1.1-.91-1.19zm6.6 9.87c-.06-.18-.09-.27-.09-.42 0-1.04 2.47-3.45 4.4-3.45.89 0 2.29.42 3.12 1.58.45.62.45 1.01.45 2.55v3.98c0 2.38 0 2.91.77 2.91.32 0 .71-.03 1.45-.65l.15.45c-1.6 1.31-2.44 1.63-2.94 1.63-1.22 0-1.34-1.34-1.37-1.81-2.05 1.69-2.64 1.81-3.45 1.81-1.72 0-2.76-.98-2.76-2.44 0-1.81 1.6-2.44 3.51-2.91.62-.15 1.6-.51 2.64-1.13v-2.35c0-.83 0-1.31-.51-1.9-.38-.48-1.01-.86-1.66-.86-.98 0-1.84.83-1.84 1.45 0 .18.03.3.15.57l-2.02.99zm4.13 3.53c-1.81.74-2.5 1.04-2.5 2.26 0 1.07.86 1.75 1.75 1.75.47 0 .83-.15 2.5-1.31v-3.54c-.56.34-1.03.55-1.75.84zm29.05-1.1c0-4.1 3.33-6.3 6.42-6.3 3.63 0 6.39 2.7 6.39 6.24 0 3.5-2.76 6.21-6.3 6.21-3.69 0-6.51-2.67-6.51-6.15zm10.57.69c0-3.39-2.08-6.27-4.57-6.27-1.96 0-3.78 2.02-3.78 4.58 0 3.6 2.05 6.45 4.61 6.45 1.75-.01 3.74-1.79 3.74-4.76z" />
</svg>
