<svg xmlns="http://www.w3.org/2000/svg" viewBox="0 0 483.08 738.15" class="crest">
  <path fill="#13385E"
    d="M477.26 392.43c0 119.82-147.87 251.55-236.25 256.22C143.28 641 5.19 503.76 5.19 393.71V6.19h472.08c-.01 0 .42 223.93-.01 386.24zM18.66 634.45c15.73-8.5 39.97-13.61 53.15-31.89 4.68 18.71-7.23 31.4-6.8 58.62l351.64-.01c2.64-13.83-11.46-40.33-6.35-58.61 13.18 18.28 37 23.39 52.73 31.89 13.61 7.23 14.03 11.06 14.03 34.87v48.48c0 9.36-11.06 14.88-23.81 14.46H27.59c-12.76.43-23.39-5.1-23.39-14.46v-48.48c0-22.96 0-28.06 14.46-34.87z" />
  <path fill="#9ADAF8"
    d="M447.72 661.24h-31.5c.27-1.43.58-2.93.89-4.6.01.68.01 1.36 0 2.05 11.48-20.84 2.13-26.36 3.83-36.14 8.93 11.48 22.54 13.18 32.32 18.28 11.89 6.38 19.55 20.41-5.54 20.41zm-83.06-204.65c12.75-12.32 21.67 0 19.12 9.35 0 .42-.42.85-.42 1.27-14.87 42.92-52.26 71.38-95.61 83.71 2.12 4.25 8.5 8.5 15.3 13.17-33.99 5.52-61.19-2.12-73.08-6.37-32.29-1.27-64.16-10.62-89.23-29.32-26.77-14.87-35.69-31.02-47.59-55.66-1.27-2.97-3.82-5.95-6.8-11.05-1.7-3.4-2.12-9.35 6.8-6.37 8.07 2.55 18.27 4.67 21.67.42.42-.85.42-1.27.42-1.7-.42-1.27 2.12-4.25 5.52-2.55 5.95-2.12 9.35-5.95 11.05-8.07 2.97.85 5.95 1.27 9.35 2.55 11.05 4.25 33.14 15.3 38.67 36.97 0-16.15-6.37-25.49-12.75-30.59 26.39.31 49.75 5.74 70.96 11.81v-15.89c6.31 2.82 11.45 6.33 14.87 8.99v11.3c2.29.69 4.56 1.38 6.8 2.06 8.07-.85 26.77-2.55 48.44.42-2.12 2.12-5.1 6.37-6.37 8.92 17.85 1.7 34.84-1.27 52.26-12.75 19.55-12.75-15.3-22.52-15.3-70.54 18.27 15.3 35.27 8.5 49.29 17.42 15.3-8.92 39.09-18.27 63.31-5.95-26.34 8.07-45.89 29.32-60.76 49.29 3.83-16.13-14.87-27.61-25.92-.84zm-237.52 19.55c-2.55 0-4.67 2.12-4.67 4.25 0 2.12 2.12 3.82 4.67 3.82s4.67-1.7 4.67-3.82c0-2.13-2.12-4.25-4.67-4.25zm110.9-307.21h14.87v24.52h-14.87v-24.52zm14.87 250.42h-14.87v-60.12c6.38 2.91 11.53 6.5 14.87 9.13v50.99zm-14.87-147.88c6.46 3 11.62 6.67 14.87 9.28v51.23h-14.87v-60.51zm2.97-141.21s-28.89-15.3-60.34-4.67c-.85-3.4-2.55-11.47-3.82-14.02 21.25-5.52 54.39-1.7 64.59 7.65 10.2-8.92 43.34-12.75 63.74-7.65-1.27 2.55-2.97 10.62-3.82 14.02-31.03-10.63-60.35 4.67-60.35 4.67zm-7.22-24.22c-3.4-2.55-8.5-5.1-15.3-5.95 10.62-20.4 11.47-27.62 14.87-62.46 3.82 2.12 5.95 5.1 8.07 8.92v7.22s-10.19 22.95-7.64 52.27zm-118.98 342.9c-2.55-.85-8.5-2.55-15.3-2.55-5.1 0-9.77-2.97-9.77-4.67.43-.85 1.7-1.7 3.82-1.7 4.67-.85 15.3 0 26.77 1.7-.84 2.55-2.54 5.1-5.52 7.22zM29.86 640.83c9.36-5.1 23.39-6.8 32.32-18.71 1.67 9.59-7.28 14.7 3.2 34.94.17 1.44.42 2.84.78 4.18H35.82c-25.94 0-18.29-14.03-5.96-20.41zm223.05-65.69h-14.87v-6.74c5.45 1.51 10.59 2.5 14.87 3.16v3.58z" />
  <path fill="#FFF"
    d="m445.32 712.41-1.56-5.63h-12.13l-1.64 5.63h-8.49l10.83-31.35h10.7l10.82 31.35h-8.53zm-6.58-22c-.12-.53-.46-1.94-1.02-4.24-.61 2.3-.95 3.71-1.09 4.24l-3.14 10.31h8.46l-3.21-10.31zm-26.92 22h-8.52v-23.93h-6.95v-7.42h22.49v7.42h-7.02v23.93zm-28.04-275.79c-1.7-9.35 4.25-26.77 30.17-30.17-12.32 4.25-24.22 17.43-30.17 30.17zm5.95 275.79h-8.63v-31.35h8.63v31.35zm-60.76-200.58c-28.47 7.65-75.63 20.4-145.32 2.97-18.7-4.67-62.46-16.15-80.31-39.09-3.4-4.67-4.67-13.17-4.67-14.45 0-1.7.85-2.55 4.67-1.7 12.32 2.12 14.45-2.55 19.12-7.65 5.52-.85 22.95-3.82 36.97 5.52 15.3 10.2 20.4 25.07 20.4 25.07s5.1-12.75-2.12-22.52c14.02-3.82 38.24 2.12 59.91 10.62 31.87 12.32 56.09 16.57 80.31 12.32s36.97-9.35 45.04-21.25c4.25-6.37 16.57-5.1 13.17 4.67-3.4 9.8-18.7 37.42-47.17 45.49zm-201.83-35.69c-2.55 0-4.67 2.12-4.67 4.25 0 2.12 2.12 3.82 4.67 3.82s4.67-1.7 4.67-3.82c0-2.13-2.12-4.25-4.67-4.25zm232.85-65.86c5.95 14.87 6.8 33.57 6.8 33.57s-14.45-23.37-6.8-33.57zm-15.3-3.83c6.8 10.2 16.57 41.22 16.57 41.22s-21.67-23.37-16.57-41.22zM241.44 111.57V46.56c11.05-21.67 26.77-5.1 54.39-13.6 5.1 22.52 9.77 62.89 11.05 70.11-20.83 5.95-39.1-16.15-65.44 8.5zm-.06-64.93-.01-.21.06.12c-.03.13-.05.28-.08.42.02-.12.03-.24.03-.33zm-1.25 6.7c.2-.91.54-2.45.81-3.85-.21 1.4-.36 2.59-.36 2.59s-.16.44-.45 1.26zm-5.07 393.7c1.12.43 2.22.89 3.27 1.36v16.83c-1.08-.31-2.18-.62-3.27-.92v-17.27zm0-89.03h.1c1.08.43 2.14.88 3.17 1.35v58.98h-3.27v-60.33zm0-87.83c1.13.46 2.21.94 3.27 1.44v60.35h-3.27v-61.79zm0-101.25h3.27v24.52h-3.27v-24.52zm-13.56-68.48c5.23.99 9.32 2.98 12.28 5.05 0 .04 0 .07.01.11-4.3-2.75-8.37-4.34-12.29-5.16zm-45.5 2.62c1.27-7.22 6.37-47.59 11.05-70.11 22.04 6.78 36.49-2.11 47.05 4.8-3.39 34.72-4.25 41.96-14.85 62.31-15.63-2.15-28.8 7.26-43.25 3zm-61.75 609.34h-8.5l-1.55-5.63H92.07l-1.65 5.63h-8.48l10.8-31.35h10.7l10.81 31.35zm-15.06-22c-.14-.53-.51-1.94-1.05-4.24-.57 2.3-.96 3.71-1.1 4.24l-3.17 10.31h8.52l-3.2-10.31zm-31.29-9.35h8.67v31.35H67.9v-31.35zm-24.54 31.35-13.15-31.35h9.05l6.29 17.53c.14.39.48 1.79 1.02 4.22.6-2.44.98-3.83 1.14-4.22l6.14-17.53h9.11l-13.12 31.35h-6.48zm103.14-13.82c.14.39.45 1.79 1.04 4.22.55-2.44.96-3.83 1.08-4.22l6.24-17.53h9.05l-13.11 31.35h-6.49l-13.16-31.35h9.09l6.26 17.53zm41.33-10.63h-10.89v5.44h10.26v6.68h-10.26v5.35h10.89v6.99h-19.19v-31.35h19.19v6.89zm17.28-6.9c4.32 0 7.67.04 10.37 2.13 2.24 1.76 3.47 4.42 3.47 7.68 0 4.83-2.44 7.93-6.99 8.92l8.54 12.63h-9.65l-7.19-12.28v12.28h-8.01v-31.35h8.93c.19-.01.35-.01.53-.01zm-1.46 14.83h1.61c3.56 0 5.28-1.13 5.28-3.92 0-3.27-1.61-4.27-5.18-4.27h-1.72v8.19zm31.12 16.52h-8.64v-31.35h8.64v31.35zm3.57-137.27h-3.27v-7.61c1.1.34 2.19.65 3.27.95v6.66zm25.54 113.33h-7.02v23.93h-8.52v-23.93h-6.98v-7.42h22.52v7.42zm24.14-7.41 10.82 31.35h-8.46l-1.61-5.63h-12.11l-1.6 5.63h-8.52l10.83-31.35h10.65zM287 700.72l-3.2-10.31c-.13-.53-.48-1.94-1.05-4.24-.55 2.3-.97 3.71-1.11 4.24l-3.14 10.31h8.5zm25.9 5.83c2.32 0 3.89-1.35 3.89-3.21 0-2.51-1.73-3.27-5.28-4.18-5.62-1.47-8.37-3.77-8.37-8.63 0-5.83 4.23-10.17 10.79-10.17 3.51 0 6.58.91 9.26 2.79l-2.66 6.12c-1.97-1.65-4.06-2.48-5.99-2.48-2.1 0-3.49 1.14-3.49 2.6 0 2.27 2.2 2.74 5 3.5 5.55 1.48 8.65 3.51 8.65 9.32 0 6.46-4.66 11.02-11.99 11.02-4.43 0-7.78-1.39-11.13-4.6l3.83-6.33c2.53 2.87 5 4.25 7.49 4.25zm45.84-7.96c.12.39.47 1.79 1.01 4.22.59-2.44.99-3.83 1.11-4.22l6.21-17.53h9.09l-13.15 31.35h-6.47l-13.16-31.35h9.08l6.28 17.53z" />
  <path fill="#0499D6"
    d="M374.44 472.74c-29.32 72.66-153.82 91.36-228.18 48.44-25.07-5.52-54.81-57.36-45.47-58.21 4.9-.31 13.11 4.46 22.4 10.17-3.06 1.76-4.87 4.93-4.56 8.1.42 4.25 4.67 7.65 9.35 7.22 5.1-.42 8.5-4.25 8.07-8.92-.42-2.3-1.66-4.18-3.31-5.5 6.31 1.3 9.26 5.53 9.26 10.18 12.32 5.95 23.79 9.35 31.44.85 3.82 7.22 10.62 11.05 17.42 13.6 15.72 3.4 44.19 5.95 47.59 1.7-9.35-12.32-28.47-16.15-44.19-19.55-2.97-4.25-2.55-12.32-8.92-17.85 8.92 2.97 9.77 8.5 13.6 12.75 19.55.85 47.17 12.75 50.14 28.89-7.65 2.97-20.82 3.82-33.57 2.55 15.3 3.82 32.72 5.95 50.14 5.52 42.92-1.27 84.13-7.65 105.38-48.01 4.68-8.93 8.08-2.13 3.41 8.07z" />
  <path fill="#FFCF39"
    d="M412.25 312.12h-74.36c-7.22 0-8.07 2.55-17 14.87-2.55 2.97-.42 5.95 4.25 6.37 8.5.43 20.82.85 35.27 1.7-2.55-3.82-2.97-8.5-2.12-11.05 4.25-3.4 10.2-3.4 12.75-3.4-5.52 18.27 17 19.97 18.7 2.55.42 1.27.85 7.65-2.97 12.32 10.62 0 22.1.42 33.99.85-14.02.42-25.92.85-36.54 1.27-2.12 1.27-5.1 2.55-9.35 2.55s-7.22-.85-9.77-2.12c-25.92.42-41.22.42-54.39-.42-6.8-.42-5.95-3.82-5.52-8.07.42-2.55 5.95-47.17 9.77-80.31 2.55-19.55 8.07-42.49 24.64-48.01-2.12-6.37-7.65-19.55-10.62-27.62-4.25-10.62 2.12-19.12 15.72-19.12h52.69c3.82 0 8.92 0 13.17 2.55 5.1 2.97 7.65 8.92 5.1 15.3-4.67 12.32-10.62 27.62-11.05 28.89 6.37 2.97 8.07 4.67 11.05 8.5 9.77 11.9 12.32 31.02 13.17 38.24 3.4 27.19 8.07 64.59 8.92 71.81-1.7-4.67-3.4-7.65-25.5-7.65zm-18.27-145.74h-49.29c-5.52 0-4.25 5.1-1.7 10.62 4.25 9.77 7.65 17.85 10.2 23.37h37.39c2.55-5.1 7.65-17 11.05-25.49 3.82-9.78-3.4-8.5-7.65-8.5zM209.99 607.86c1.27-1.7 6.37-6.8 9.35-9.35-2.12-2.55-3.4-5.52-3.4-9.35 0-7.65 6.37-14.02 14.02-14.02h23.79c7.65 0 14.02 6.37 14.02 14.02 0 3.82-1.27 7.22-3.82 9.77l8.92 8.92c-16.98 6.39-47.15 6.81-62.88.01zm43.77-161.46h-23.79c-7.65 0-14.02-6.37-14.02-14.02s6.37-14.02 14.02-14.02h23.79c7.65.42 14.02 6.37 14.02 14.02s-6.37 14.02-14.02 14.02zm-24.22-116.43h23.8c7.65 0 14.02 5.95 14.02 14.02 0 7.65-6.37 14.02-14.02 14.02h-23.8c-7.65 0-14.02-6.37-14.02-14.02 0-7.65 6.37-14.02 14.02-14.02zm24.22-60.34h-23.79c-7.65 0-14.02-6.37-14.02-14.02s6.37-14.02 14.02-14.02h23.79c7.65 0 14.02 6.37 14.02 14.02s-6.37 14.02-14.02 14.02zm-33.57-78.18h42.49v41.64h-42.49v-41.64zm13.6-40.37h15.3v17.85h-15.3v-17.85zm8.07-16.99 7.22 13.17-15.3.42 8.08-13.59zM114.81 455.32c-3.4 1.27-6.8 1.7-9.77.42-2.97-1.27-5.52-3.4-6.8-6.8-.4-.88-.7-1.8-.95-2.74.72.12 1.47.19 2.23.19 1.34 0 2.64.07 3.9.18.48 1.25 1.72 2.83 3.75 3.64 2.12.85 4.25.43 5.1-.42.64-.27 1.27-.64 1.89-1.06.24.07.46.15.65.21 2.97-2.12 4.67-4.67 5.52-7.22l-.81-.12c.82-2.09 1.23-4.16 1.23-5.83 0-4.25-1.7-7.65-4.67-8.92-2.12-.42-4.25 0-5.52.42-2.97 1.27-5.52 4.25-7.22 8.07-.48 1.45-.78 2.97-.9 4.45-2.15-.11-4.08-.14-5.71-.08.18-2.04.68-4.09 1.51-6.07 2.12-5.52 5.95-9.35 10.2-11.47 3.4-1.27 6.8-1.7 9.77 0 7.22 2.97 10.62 12.75 6.8 22.1-2.12 5.1-5.95 9.35-10.2 11.05z" />
  <path fill="#E2A034"
    d="M359.99 227.57c-1.7 12.75-1.7 57.79-2.12 76.91-9.35.42-22.1 0-24.64.85 1.7-19.97 2.97-66.71 3.82-80.73.85-14.45 7.65-17.85 17-17.42h31.87c-10.63.84-24.23 6.36-25.93 20.39zm-104.1 15.29h-28.47c0-.85.43-8.92-7.22-9.77h25.07v-41.64h11.47v41.64h5.95c-7.23 1.7-6.8 7.65-6.8 9.77zm-14.03-91.78h4.67v17.85h-4.67v-17.85zm0-16.99 4.67 13.6-4.67-.42v-13.18zm-110.05-29.32c3.82 27.62-18.27 35.69-25.07 36.12-4.67 1.27-2.12 5.95-2.12 5.95 2.12 2.97 3.82 4.25 11.05 8.92 2.12 2.55-2.97 4.25-2.97 4.25s-9.35-8.92-14.02-11.47c-2.12-.85 1.27-3.82-1.27-4.67-.85-.42-9.35-.85-10.62-1.7 16.15-1.7 41.64-15.72 26.34-35.27 11.47 24.64-31.87 32.72-35.27 33.14-12.75 2.12-21.67 15.3-25.92 11.05-4.67 4.67-14.87 5.52-10.62 2.97 3.82-2.55 17.85-14.02 27.62-27.19 21.25-28.89 39.94-31.02 41.22-36.54 2.55-14.45 26.34-19.12 30.59-2.55 2.12.42 5.1 1.27 8.5 4.25-3.4 0-6.8 0-8.92.85-5.54 2.54-8.94 7.21-8.52 11.89zm2.55-18.7c-1.27 0-2.55 1.27-2.55 2.55 0 1.27 1.27 2.55 2.55 2.55 1.27 0 2.55-.85 2.55-2.55s-1.27-2.97-2.55-2.55zm117.7 510.74c-17.42 1.27-25.92-.42-25.92-.42s23.37-2.55 32.29-14.45c2.13 2.55 3.4 14.02-6.37 14.87zm.85-155.09h-26.34s19.97-1.27 32.29-14.45c3.82 2.13 4.25 14.45-5.95 14.45zm0-88.81h-26.34s19.97-1.27 32.29-14.45c3.4 2.13 4.25 14.45-5.95 14.45zm.43-88.38H227s19.97-1.27 32.29-14.45c3.39 2.13 4.24 14.45-5.95 14.45z" />
  <path fill="#EE422D" d="M132.66 111.14c0 21.25-16.57 28.04-20.82 28.89 1.28-4.67 8.07-26.76 20.82-28.89" />
  <path fill="#81C341"
    d="M174.3 274.31s21.25-10.62 23.37-21.25c-6.37-6.37-22.95-6.8-22.95-6.8s19.12-14.45 18.27-24.64c-9.35-4.25-26.34-1.7-26.34-1.7 7.65-10.62 9.77-19.55 9.77-26.77-9.77-1.7-25.07 4.25-25.07 4.25s5.1-18.27 0-27.62c-8.92-2.55-21.67 13.6-21.67 13.6s-4.67-19.97-15.3-30.17c-10.62 10.62-15.3 30.17-15.3 30.17s-12.75-16.15-22.1-13.6c-5.1 9.35 0 27.62 0 27.62s-15.3-5.95-25.07-4.25c-.42 7.65 2.12 16.15 9.77 26.77 0 0-17-2.55-26.34 1.7-.85 10.62 18.27 24.64 18.27 24.64s-16.57.42-22.95 6.8c2.12 10.62 22.95 21.25 22.95 21.25s-12.32 2.55-20.4 11.47c5.1 6.37 15.72 12.75 24.64 14.02-7.22 5.52-11.47 10.2-13.6 14.02 11.9 9.77 37.39 11.05 62.46 3.4 0 4.67 0 43.77-5.95 61.61h25.49c-5.95-17.85-5.95-56.94-5.95-61.61 25.07 7.65 50.56 6.37 62.46-3.4-1.7-3.4-5.95-8.07-13.6-14.02 8.5-1.27 19.55-7.65 24.22-14.02-6.76-8.92-19.08-11.47-19.08-11.47" />
  <path fill="#07974B"
    d="M151.36 274.73c2.55-1.27 14.45-5.1 20.82-16.15-6.37-5.95-20.82-6.37-20.82-6.37s13.17-8.5 17.42-21.25c-11.05-3.4-22.52 0-22.52 0s9.35-13.6 10.62-24.64c-10.62 1.27-22.1 6.8-22.1 6.8 3.4-7.22 4.67-17 3.4-25.49-5.1.85-10.2 7.22-13.17 11.05-2.55-8.5-7.22-11.47-10.62-13.17-5.1 7.65-6.37 12.75-5.52 22.95 1.7-1.7 4.67-4.67 8.92-7.22 2.55 14.87-2.55 25.92-2.55 25.92s6.37-4.25 15.3-5.1c.42 8.07-2.55 17-11.47 26.77 0 0 7.65-4.67 16.57-5.1-1.27 11.47-8.5 19.55-15.72 25.92 4.67-2.12 13.17-2.12 19.12-.42-2.97 8.92-9.77 13.17-19.97 18.7 6.37 0 12.75.85 16.15 3.4-4.25 7.65-14.02 11.05-20.82 13.17 15.72 5.95 31.02 8.5 45.89 5.1-.85-4.67-6.8-9.77-13.17-13.6 5.95-1.27 14.87-3.4 22.95-9.77-4.69-5.97-11.06-9.37-18.71-11.5" />
  <path fill="#fff" fill-rule="evenodd" class="dark-only"
    d="M483.06 0 .4.05v390.87c-.09 125.7 152.44 256.62 241.01 261.36l.32.02.33-.02c88.59-4.74 241.11-135.66 241.02-261.35L483.06 0zm-12.2 12.23-458.23.05v378.65c-.08 117.34 146.75 244.4 229.1 249.09 82.37-4.69 229.2-131.77 229.12-249.11.5-145.16.09-341.72.01-378.68zM16.27 636.17s3.41-1.95 3.41-1.98c.02 0 2.13-.92 2.22-.98 0 0 5.82-2.63 6.09-2.71 0 0 6.24-2.89 6.2-2.86 13.22-5.57 28.15-11.85 37.64-24.83l1.12-1.53c.25.98.49 1.85.49 1.85.78 3.13 1.17 6.19 1.17 9.14 0 5.78-1.47 11.25-3.04 17.11-1.7 6.31-3.83 14.16-4.19 24.5l-.05 1.63h348.32l-.05-1.63c-.36-10.36-2.48-18.21-4.29-24.9-1.57-5.92-2.91-11.01-2.91-16.7 0-3.12.39-6.09 1.18-9.13 0 0 .26-.98.48-1.83.57.82 1.07 1.5 1.07 1.5 9.51 12.97 24.46 19.26 37.63 24.8 0 0 5.17 2.32 5 2.18 0 0 .49.29.7.42 0 0 8.74 3.94 8.77 3.95 0 0 7.44 4.72 7.61 4.84 7.71 4.68 12.19 10.28 12.19 24.89 0 0-.19 5.98-.19 6.04l.01 8.42-.05 39.39c0 4.68-1.86 8.99-5.42 12.4-5.44 5.31-14.31 8.25-24.36 7.99H30.13c-10.14.26-19.08-2.68-24.5-7.99-3.56-3.47-5.44-7.72-5.44-12.29l-.02-39.19v-8.33L0 665.37c0-16.97 6.46-23.92 16.27-29.2zm46.72 17.15c-2.06-5.06-3.07-9.42-3.07-13.32 0-3.27.63-5.96 1.17-8.31l.21-1.32.8-5.37-3.32 2.95c-5.94 5.31-13.12 8.01-18.97 10.2 0 0-7.6 3.18-7.8 3.28 0 0-2.55 1.3-2.89 1.48-4.16 2.53-7.27 5.84-8.31 8.77l-.56 1.63 1.65.45c4.14 1.15 9.14 1.73 14.88 1.73h27.13l-.92-2.17zm398.9-2.25c-1.04-2.36-3.32-4.9-6.41-7.01 0 0-6-3.26-6.14-3.33 0 0-6.22-2.56-6.28-2.57-5.77-2.21-12.95-4.92-18.87-10.2l-3.24-2.83.7 5.13s.22 1.38.32 1.8c.53 2.41 1.1 4.91 1.1 7.95 0 3.8-1.03 8.16-3.14 13.32l-.91 2.18h27.13c7.68 0 12.34-1.26 14.89-2.3l1.51-.64-.66-1.5zM11.7 664.69s.2 5.36.2 5.24l-.02 8.72.02 39.09c0 1.48.61 2.75 1.86 3.97 3.05 3.06 9.29 4.84 16.24 4.66h423.17c6.84.18 12.97-1.6 15.96-4.62 1.32-1.21 1.96-2.53 1.96-4.09l.01-48.13.4-9.17-2.58 1.56c-5.65 3.45-13.53 5.28-22.77 5.28H36.79c-9.4 0-17.07-1.38-22.79-4.1l-2.38-1.08.08 2.67z" />
  </svg>
