<svg class="dag-logo" viewBox="0 0 400.86 89.38">
  <style type="text/css">
    .primary {
      stroke: none;
      fill: #000;
    }

    .thistle {
      stroke: none;
      fill: #951272;
    }

    .leaf {
      stroke: none;
      fill: #00843D;
    }
  </style>
  <path class="thistle" d="M302.62,13.21h7.4v18.85c-2.32-1.43-4.78-2.54-7.4-3.33V13.21z M292.84,6.13h7.4v21.97
	c-2.35-0.53-4.82-0.82-7.4-0.87V6.13z M283.03,0.65h7.4v26.59c-2.58,0.09-5.05,0.43-7.4,1.01V0.65z M273.18,7.77h7.4v21.18
	c-2.62,0.86-5.08,2.03-7.4,3.53V7.77z" />
  <path class="leaf" d="M276.84,76.99c1.32,1.33,2.75,2.44,4.31,3.33l-2.58,6.17c-2.48-1.27-4.79-2.93-6.9-4.99
	c-4.71-4.65-7.4-10.32-8.07-17.01h7.45C271.64,69.52,273.57,73.69,276.84,76.99z M291.95,83.02c1.75,0,3.4-0.17,4.97-0.5l2.56,6.13
	c-2.37,0.59-4.88,0.89-7.53,0.89c-2.81,0-5.47-0.34-7.97-1l2.55-6.12C288.24,82.83,290.04,83.02,291.95,83.02z M312.69,64.48h7.54
	c-0.67,6.74-3.36,12.41-8.07,17.01c-2.2,2.16-4.61,3.88-7.23,5.17l-2.57-6.15c1.68-0.92,3.22-2.1,4.63-3.53
	C310.21,73.69,312.11,69.52,312.69,64.48z" />
  <path class="primary" d="M383.68,88.98h-8.24l-12.6-45.04l-13.5,45.04l-8.16,0.08l-15.84-55.82h7.76l12.44,47.38l13.57-47.38h8.08
	l12.52,47.22l13.17-47.22h7.76L383.68,88.98z M306.98,45.22c-3.94-4.02-8.97-6.03-15.11-6.03c-6.09,0-11.12,2.01-15.11,6.03
	c-3.45,3.49-5.39,7.99-5.81,13.5h-7.44c0.48-7.21,3.19-13.21,8.15-18.01c5.49-5.36,12.25-8.04,20.28-8.04
	c8.03,0,14.76,2.68,20.2,8.04c4.97,4.8,7.68,10.8,8.16,18.01h-7.52C312.37,53.21,310.44,48.7,306.98,45.22z M228.65,89.46
	c-7.7,0-14.3-2.68-19.8-8.04c-5.49-5.36-8.24-12.15-8.24-20.35c0-8.26,2.75-15.04,8.24-20.35c5.49-5.36,12.25-8.04,20.28-8.04
	c5.82,0,10.99,1.37,15.51,4.1c4.58,2.73,7.95,6.68,10.1,11.82h-8.89c-3.34-6.27-8.92-9.41-16.73-9.41c-6.09,0-11.12,2.01-15.11,6.03
	c-3.93,3.97-5.9,9.25-5.9,15.84c0,6.6,1.97,11.91,5.9,15.92c3.99,4.02,8.92,6.03,14.79,6.03c5.93,0,10.67-1.66,14.22-4.99
	c3.61-3.32,5.71-7.83,6.3-13.51h-23.11v-5.79h30.87v5.79c-0.75,7.19-3.74,13.14-8.97,17.86C242.9,87.1,236.41,89.46,228.65,89.46z
	 M246.82,9.84c0.7,0.26,1.48,0.48,2.34,0.67c0.88,0.19,1.74,0.42,2.59,0.67c0.88,0.23,1.66,0.54,2.37,0.93
	c0.71,0.38,1.28,0.95,1.73,1.72c0.45,0.77,0.67,1.71,0.67,2.84c0,1.72-0.66,3.22-1.98,4.49c-1.32,1.28-3.11,1.91-5.38,1.91
	c-2.24,0-4.07-0.51-5.47-1.53c-1.41-1.04-2.11-2.45-2.11-4.21h3.11c0.09,1,0.48,1.81,1.18,2.42c0.73,0.61,1.79,0.92,3.2,0.92
	c1.41,0,2.53-0.36,3.36-1.08c0.83-0.72,1.25-1.56,1.25-2.52c0-0.98-0.23-1.72-0.67-2.23c-0.45-0.53-1.02-0.92-1.73-1.18
	c-0.7-0.25-1.49-0.47-2.37-0.64c-0.85-0.19-1.72-0.41-2.59-0.67c-0.86-0.25-1.63-0.57-2.34-0.96c-0.71-0.4-1.28-0.98-1.73-1.75
	c-0.45-0.79-0.67-1.75-0.67-2.9c0-1.87,0.66-3.36,1.98-4.49c1.34-1.15,3.08-1.72,5.22-1.72c2.16,0,3.87,0.5,5.12,1.5
	c1.28,0.98,2.02,2.34,2.21,4.08h-3.23c-0.09-0.87-0.5-1.61-1.25-2.23c-0.72-0.62-1.72-0.92-2.97-0.92c-1.24,0-2.25,0.32-3.04,0.95
	c-0.79,0.62-1.18,1.53-1.18,2.74c0,0.8,0.23,1.47,0.67,2.01C245.54,9.19,246.11,9.58,246.82,9.84z M227.31,20.48
	c1.47,0,2.79-0.32,3.94-0.96c1.15-0.66,2.05-1.59,2.69-2.8h3.52c-0.86,2.04-2.19,3.6-4,4.68c-1.79,1.08-3.84,1.63-6.15,1.63
	c-3.18,0-5.86-1.07-8.03-3.19c-2.18-2.12-3.27-4.81-3.27-8.06c0-3.27,1.09-5.96,3.27-8.06c2.18-2.12,4.85-3.19,8.03-3.19
	c2.31,0,4.35,0.54,6.15,1.63c1.81,1.08,3.15,2.64,4,4.68h-3.52c-1.32-2.49-3.53-3.73-6.63-3.73c-2.41,0-4.41,0.79-5.99,2.39
	c-1.56,1.57-2.34,3.66-2.34,6.28s0.78,4.71,2.34,6.31C222.9,19.68,224.9,20.48,227.31,20.48z M209.47,0.75h2.91v22.08h-2.91V0.75z
	 M199.75,22.83h-2.92V3.08h-5.86V0.75h14.63v2.33h-5.86V22.83z M181.87,22.83h-2.91v-8.35l-7.24-13.73h3.2l5.47,11.06l5.44-11.06
	h3.24l-7.21,13.73V22.83z M159.89,0.75h2.91v19.85h7.78v2.23h-10.69V0.75z M172.99,32.67c5.44,0,9.75,1.26,12.93,3.78
	c3.24,2.47,5.09,5.9,5.58,10.29h-8.16c-0.22-2.2-1.27-4.07-3.15-5.63c-1.83-1.56-4.33-2.33-7.51-2.33c-3.12,0-5.68,0.81-7.67,2.42
	C163,42.75,162,45.06,162,48.11c0,2.04,0.56,3.73,1.7,5.07c1.13,1.34,2.59,2.33,4.37,2.98c1.77,0.64,3.74,1.21,5.9,1.69
	c2.21,0.48,4.39,1.05,6.55,1.69c2.21,0.59,4.2,1.37,5.98,2.33c1.78,0.96,3.23,2.41,4.36,4.34c1.13,1.93,1.7,4.31,1.7,7.16
	c0,4.34-1.67,8.12-5.01,11.34c-3.34,3.22-7.87,4.82-13.57,4.82c-5.65,0-10.26-1.29-13.82-3.86c-3.56-2.63-5.33-6.17-5.33-10.62h7.84
	c0.21,2.52,1.21,4.56,2.99,6.11c1.83,1.56,4.52,2.33,8.08,2.33c3.56,0,6.39-0.91,8.48-2.73c2.1-1.82,3.15-3.94,3.15-6.35
	c0-2.47-0.57-4.34-1.7-5.63c-1.13-1.34-2.58-2.33-4.36-2.98c-1.78-0.64-3.77-1.18-5.98-1.61c-2.16-0.48-4.34-1.05-6.55-1.69
	c-2.16-0.64-4.12-1.45-5.9-2.41c-1.78-1.02-3.23-2.49-4.36-4.42c-1.13-1.98-1.7-4.43-1.7-7.32c0-4.72,1.67-8.5,5.01-11.34
	C163.21,34.12,167.6,32.67,172.99,32.67z M151.33,17.99h-9.86l-1.73,4.84h-2.98l8.07-22.08h3.2l8.03,22.08h-3.01L151.33,17.99z
	 M146.4,4.29l-4.1,11.4h8.19L146.4,4.29z M118.35,5.31v17.52h-2.91V0.75h2.91l11.72,17.53V0.75h2.91v22.08h-2.91L118.35,5.31z
	 M106.88,17.99h-9.86l-1.73,4.84h-2.98l8.06-22.08h3.2l8.03,22.08h-3.01L106.88,17.99z M101.95,4.29l-4.1,11.4h8.19L101.95,4.29z
	 M75.12,17.99h-9.86l-1.73,4.84h-2.98l8.06-22.08h3.2l8.03,22.08h-3.01L75.12,17.99z M70.19,4.29l-4.1,11.4h8.19L70.19,4.29z
	 M51.82,22.83h-2.92V3.08h-5.86V0.75h14.63v2.33h-5.86V22.83z M35.48,17.99h-9.86l-1.73,4.84h-2.98l8.06-22.08h3.2l8.03,22.08h-3.01
	L35.48,17.99z M30.55,4.29l-4.1,11.4h8.19L30.55,4.29z M6.66,22.83h-7.01V0.75h7.01c3.59,0,6.41,1,8.48,3
	c2.07,2,3.11,4.72,3.11,8.16c0,3.44-1.04,6.13-3.11,8.06C13.07,21.88,10.25,22.83,6.66,22.83z M13.06,5.5
	c-1.47-1.53-3.61-2.29-6.4-2.29h-4.1v17.4h4.1c2.79,0,4.93-0.77,6.4-2.29c1.47-1.53,2.21-3.66,2.21-6.4
	C15.27,9.17,14.53,7.03,13.06,5.5z M28.23,32.67c5.82,0,10.99,1.37,15.51,4.1c4.58,2.73,7.95,6.68,10.1,11.82h-8.89
	c-3.34-6.27-8.91-9.41-16.72-9.41c-6.09,0-11.12,2.01-15.11,6.03c-3.93,3.97-5.9,9.25-5.9,15.84c0,6.6,1.97,11.91,5.9,15.92
	c3.99,4.02,8.92,6.03,14.79,6.03c5.93,0,10.67-1.66,14.22-4.99c3.61-3.32,5.71-7.83,6.3-13.51H25.32v-5.79h30.87v5.79
	c-0.75,7.19-3.74,13.14-8.97,17.86C42,87.1,35.51,89.46,27.75,89.46c-7.71,0-14.3-2.68-19.8-8.04c-5.5-5.36-8.24-12.15-8.24-20.35
	c0-8.26,2.75-15.04,8.24-20.35C13.45,35.35,20.21,32.67,28.23,32.67z M72.79,83.34h19.64v5.63H65.43V33.23h7.35V83.34z
	 M126.09,33.23l20.28,55.74h-7.59l-4.36-12.23h-24.89l-4.36,12.23h-7.51l20.36-55.74H126.09z M132.31,70.96l-10.34-28.8l-10.34,28.8
	H132.31z" />
</svg>
