<svg xmlns="http://www.w3.org/2000/svg" width="448" height="392" viewBox="0 0 448 392">
  <defs>
    <style>
      .cls-1 {
        fill-rule: evenodd;
      }
    </style>
  </defs>
  <path id="Color_Fill_1" data-name="Color Fill 1" class="cls-1" d="M16,62H432a15.8,15.8,0,0,0,16-16V16A15.8,15.8,0,0,0,432,0H16A15.8,15.8,0,0,0,0,16V46A15.8,15.8,0,0,0,16,62Zm0,165H432a15.8,15.8,0,0,0,16-16V181a15.8,15.8,0,0,0-16-16H16A15.8,15.8,0,0,0,0,181v30A15.8,15.8,0,0,0,16,227Zm0,165H432a15.8,15.8,0,0,0,16-16V346a15.8,15.8,0,0,0-16-16H16A15.8,15.8,0,0,0,0,346v30A15.8,15.8,0,0,0,16,392Z"/>
</svg>
